<?xml version="1.0" encoding="UTF-8" standalone="no"?>
<svg
   width="766.434"
   height="766.434"
   xml:space="preserve"
   version="1.1"
   id="svg55"
   xmlns="http://www.w3.org/2000/svg"
   xmlns:svg="http://www.w3.org/2000/svg">
<defs id="EscudoTFUS"></defs>
   <g id="Dibujo" transform="translate(-174.38602,-256.47805)">
      <ellipse
         style="display:inline;opacity:1;fill:#ffffff;fill-opacity:1;stroke:#95703e;stroke-width:5.34927;stroke-dasharray:none;stroke-opacity:1"
         cx="558.49402"
         cy="639.38202"
         rx="380.543"
         ry="378.047"
         id="Borde dorado externo" 
      />
      <ellipse
         style="display:inline;opacity:1;fill:#ffffff;fill-opacity:1;stroke:#95703e;stroke-width:4.05103;stroke-dasharray:none;stroke-opacity:1"
         cx="558.50702"
         cy="637.39398"
         rx="288.33701"
         ry="286.20599"
         id="Borde dorado interno"
      />
      <ellipse
         style="display:inline;fill:#95703e;fill-opacity:1;stroke:none;stroke-width:3.2517;stroke-dasharray:none;stroke-opacity:1"
         cx="559.70398"
         cy="638.69397"
         rx="208.483"
         ry="210.013"
         id="Circulo Dorado"
      />
      <path
         d="m 558.506,357.01 c -155.138,0 -280.901,125.533 -280.9,280.385 0,154.85 125.763,280.382 280.9,280.382 155.137,10e-4 280.902,-125.53 280.902,-280.382 0,-154.853 -125.764,-280.386 -280.902,-280.385 z m 0.988,72.37 c 115.143,0 206.485,94.027 206.485,210.015 0,115.987 -91.342,208.014 -206.485,208.013 -115.142,0 -206.482,-92.027 -206.482,-208.013 0,-115.987 91.34,-210.014 206.482,-210.014 z"
         id="Circulo rojo"
         fill="#881336"
         stroke="none"
         stroke-width="4.36" 
      />
      <path
         style="display:inline;opacity:1;fill:#798088;fill-opacity:1;stroke:none;stroke-width:1.0512;stroke-dasharray:none;stroke-opacity:1"
         d="m 518.077,602.523 90.467,5.239 -9.532,17.775 1.388,44.314 -80.124,0.408 0.75,-37.318 z"
         transform="translate(-1.864,-3.729)"
         id="path3" 
      />
      <path
         style="baseline-shift:baseline;display:inline;overflow:visible;opacity:1;vector-effect:none;fill:#ffffff;fill-opacity:1;stroke:none;stroke-opacity:1;enable-background:accumulate;stop-color:#000000;stop-opacity:1"
         d="m 525.032,583.274 0.123,-40.438 -9.691,1.355 c -9.031,1.263 -16.926,6.72 -22.701,13.762 l -3.734,4.554 -15.932,-6.94 c -11.365,-5.216 -23.301,-3.504 -34.481,0.856 -8.628,3.276 -15.656,10.14 -18.659,18.176 -2,5.356 -2.404,10.993 -1.726,16.58 0.794,6.549 3.556,17.355 7.667,22.486 a 18.455,18.455 0 0 0 2.025,2.13 c 4.927,4.468 14.896,9.705 21.385,9.63 2.247,-0.026 3.535,3.033 3.977,6.564 0.359,2.86 2.55,7.742 10.297,17.391 5.175,3.932 11.108,6.866 17.276,8.386 3.6,0.887 9.637,1.041 13.345,0.885 4.596,-0.194 9.16,-0.609 13.619,-1.715 3.153,-0.782 7.609,-3.513 10.09,-5.613 l 3.166,-2.678 0.801,-16.497 c 11.103,-3.511 18.232,-9.786 23.899,-18.3 12.054,2.282 24.075,2.043 36.124,-0.177 6.45,7.613 13.603,9.856 21.73,12.53 l 0.566,24.09 13.388,5.119 c 12.762,4.88 26.41,-3.336 30.646,-7.83 l 4.926,-5.506 4.727,-0.515 c 20.08,-2.19 28.492,-2.986 40.469,-15.165 20.088,-20.427 12.374,-36.897 7.96,-50.248 -3.372,-10.202 -22.425,-23.616 -49.244,-16.757 l -14.681,3.756 c -13.665,-25.594 -48.135,-17.922 -48.02,-17.922 l 0.068,7.94 c 0.047,5.649 1.104,11.254 1.104,16.908 v 5.396 l -12.116,-1.816 c -15.99,-2.396 -31.666,-5.257 -45.433,3.034 z"
         transform="matrix(0.95266,0,0,1,22.282,-3.729)"
         id="path4" 
      />
      <path
         style="display:inline;opacity:1;fill:#ffffff;fill-opacity:1;stroke:none;stroke-width:0.977;stroke-dasharray:none;stroke-opacity:1"
         d="m 525.067,670.532 c 0,0 -0.392,-2.04 -3.327,3.723 -1.67,3.278 -4.49,8.642 -6.574,12.967 -1.723,3.576 -3.624,9.983 -6.661,12.245 -2.51,1.87 -5.422,4.045 -6.297,7.998 -0.386,1.748 -0.997,3.445 -1.728,5.057 -3.393,7.487 -7.7,19.553 -4.94,27.2 2.776,7.69 6.6,16.066 7.627,20.297 1.496,6.17 5.548,12.735 5.577,12.731 0,0 102.671,11.903 106.71,6.25 4.037,-5.652 5.574,-9.516 10.289,-13.367 2.639,-2.156 2.233,-8.429 3.14,-12.622 1.288,-5.953 5.607,-10.682 5.375,-14.33 -0.222,-3.491 -8.777,-22.837 -11.004,-23.89 -1.06,-0.5 -1.92,-8.05 -2.317,-14.308 -0.412,-6.519 -7.189,-9.098 -9.569,-12.67 -4.107,-6.16 -0.835,-6.402 -2.401,-9.52 -1.558,-3.104 -4.724,-10.36 -3.938,-10.734 z"
         transform="matrix(0.95266,0,0,1,22.282,-3.729)"
         id="path5" 
      />
      <path
         style="display:inline;opacity:1;fill:#000101;fill-opacity:1;stroke-width:0.977"
         d="m 539.794,515.48 c -0.303,-1.314 -0.91,-3.538 1.617,-5.964 2.527,-2.426 5.863,-6.67 5.964,-8.288 0.101,-1.617 -0.809,-7.682 1.617,-10.512 2.426,-2.83 1.82,-4.548 7.076,-4.852 5.255,-0.303 10.006,-1.213 12.129,1.415 2.122,2.628 5.66,8.188 5.256,10.31 -0.405,2.123 0.91,3.235 1.92,4.144 1.01,0.91 1.112,0.91 3.538,1.112 2.426,0.202 5.458,2.73 5.963,3.841 0.506,1.112 2.325,5.964 2.426,7.58 0.101,1.618 -1.112,6.166 -1.516,6.672 -0.404,0.505 -1.718,1.415 -3.942,1.718 -2.224,0.303 -10.41,4.549 -15.768,2.224 -5.357,-2.325 -14.252,-4.953 -14.252,-4.953 0,-1.388 -11.468,-2.022 -12.028,-4.447 z"
         transform="translate(-1.864,-3.729)"
         id="path6" 
      />
      <path
         style="display:inline;opacity:1;fill:#f7d6ab;fill-opacity:1;stroke-width:0.977"
         d="m 570.432,521.43 c 0,0 -0.012,2.136 2.212,2.54 2.224,0.404 6.88,-1.22 7.386,-1.422 0.505,-0.202 -1.732,-0.429 -2.338,-2.45 -0.607,-2.022 0.167,-3.86 0.083,-5.552 -0.101,-2.052 -4.015,-3.899 -5.672,-5.708 -1.169,-1.275 -3.127,-0.76 -3.734,0.048 -0.606,0.809 -0.298,4.668 -0.606,5.547 -0.294,0.837 -0.367,2.651 -0.113,3.765 0.16,0.696 2.782,3.232 2.782,3.232 z"
         transform="translate(-1.864,-3.729)"
         id="path7" 
      />
      <path
         style="display:inline;opacity:1;fill:#f8fdff;fill-opacity:1;stroke-width:0.977"
         d="m 621.363,488.998 c 1.617,-0.202 3.437,-1.112 4.043,-1.92 0.607,-0.81 0.809,-4.954 1.718,-4.55 0.91,0.405 4.347,2.427 5.459,2.224 1.111,-0.202 -1.416,-3.335 0.505,-3.638 1.92,-0.304 5.054,-1.011 5.256,0.1 0.202,1.113 1.612,4.326 2.122,3.69 0.31,-0.386 0.264,-2.73 1.112,-3.285 0.757,-0.495 3.648,0.766 4.852,1.516 1.144,0.713 5.09,1.31 6.166,1.112 0.994,-0.182 4.77,0.973 2.678,-0.96 -2.633,-2.433 -5.484,-5.07 -6.822,-5.711 -1.73,-0.828 -5.054,-3.84 -5.66,-4.346 -0.607,-0.506 0.909,-1.213 2.93,-1.719 2.022,-0.505 3.235,-0.707 3.235,-0.707 0.726,0.198 3.486,-2.371 2.83,-3.285 -0.417,-0.58 -6.772,-0.86 -11.22,-2.982 -4.447,-2.122 -8.692,-5.458 -10.916,-5.256 -2.223,0.202 -6.064,3.74 -7.58,5.357 -1.517,1.617 -9.549,7.58 -10.664,8.339 -1.84,1.252 -3.568,1.408 -3.083,3.386 0.515,2.099 13.039,12.635 13.039,12.635 z m -111.84,-5.42 c 0,0 -7.069,-6.99 -8.856,-8.635 -1.787,-1.643 -6.681,-5.684 -8.325,-5.684 -1.644,0 -10.263,4.41 -13.01,5.6 -2.784,1.206 -10.651,2.756 -10.865,3.47 -0.215,0.715 3.857,6.222 5.04,6.406 1.035,0.16 -7.034,5.45 -7.466,6.29 -0.553,1.074 -1.52,1.319 3.383,1.803 1.076,0.106 4.398,-2.298 5.612,-2.216 1.054,0.072 2.628,2.804 4.551,2.804 2.018,0 5.418,-5.63 6.325,-5.288 0.495,0.186 2.925,2.315 4.177,2.682 1.834,0.539 4.214,-3.378 4.718,-3.716 0.536,-0.362 1.715,3.43 2.215,3.93 0.5,0.501 3.717,4.432 3.717,4.432 z"
         transform="translate(-1.864,-3.729)"
         id="path8" 
      />
      <path
         style="display:inline;opacity:1;fill:#798088;fill-opacity:1;stroke:none;stroke-width:1.0512;stroke-dasharray:none;stroke-opacity:1"
         d="m 506.282,722.195 7.136,-0.777 a 37.547,37.547 179.508 0 1 7.495,-0.065 l 7.066,0.648 a 97.946,97.946 3.035 0 0 7.517,0.399 l 59.216,0.86 5.176,-1.224 a 20.842,20.842 179.925 0 1 9.544,-0.013 l 6.877,1.608 -0.216,3.27 -6.046,0.08 -1.6,89.833 -97.988,0.517 -2.157,-91.684 z"
         transform="translate(-1.864,-3.729)"
         id="path9" 
      />
      <path
         style="display:inline;opacity:1;fill:#f7d6ab;fill-opacity:1;stroke-width:0.977"
         d="m 550.269,518.47 c 0,0 5.646,3.002 7.576,2.93 1.93,-0.071 7.218,-2.072 7.933,-2.787 0.715,-0.715 -0.143,-9.72 -0.143,-9.72 0,0 2.43,-4.789 2.073,-7.648 -0.357,-2.859 -1.217,-8.613 -4.217,-8.648 -1.47,-0.017 -1.493,0.592 -3.515,0.848 -1.784,0.227 -2.203,-0.633 -3.99,0.153 -1.907,0.839 -2.572,6.861 -1.858,8.648 0.715,1.787 2.073,4.717 2.43,5.432 0.358,0.714 -1.358,4.574 -1.715,6.218 -0.357,1.644 -1.43,3.502 -2.573,3.788 -1.144,0.286 -2.001,0.786 -2.001,0.786 z"
         transform="translate(-1.864,-3.729)"
         id="path10" 
      />
      <path
         style="display:inline;opacity:1;fill:#0493d6;fill-opacity:1;stroke:none;stroke-width:1.0512;stroke-dasharray:none;stroke-opacity:1"
         d="m 580.122,528.149 -9.07,-5.897 c -0.382,0.009 -4.73,-6.854 -5.198,-4.513 -0.496,2.48 -12.273,3.457 -13.817,0.79 0,0 -1.217,0.03 -5.904,-0.672 -4.688,-0.703 -6.607,-2.667 -6.607,-2.667 0,0 -7.299,3.546 -11.106,15.948 -1.915,6.24 -8.283,17.942 -6.1,24.897 2.789,8.886 -0.159,10.827 -1.038,12.528 -2.102,4.065 2.583,17.016 2.583,17.016 5.003,-2.471 10.42,-4.95 15.53,-6.995 10.03,-4.014 27.81,-4.281 38.647,-3.179 4.91,0.5 9.847,1.257 14.848,2.656 -0.176,0.048 2.135,-4.162 3.134,-14.673 0.46,-4.839 -2.914,-0.101 -1.407,-9.273 0.865,-5.264 -3.776,-10.398 -3.776,-10.398"
         transform="translate(-1.864,-3.729)"
         id="path11" 
      />
      <path
         style="display:inline;opacity:1;fill:#b1b1b3;fill-opacity:1;stroke:none;stroke-width:1.0512;stroke-dasharray:none;stroke-opacity:1"
         d="m 660.632,692.344 9.754,-1.012 0.335,13.004 -9.542,11.072 -0.592,-2.462 z m -204.139,6.929 0.144,-8.333 7.311,0.682 -1.027,9.658 z m -41.443,-3.854 -0.436,-6.937 -10.012,-0.22 -0.726,25.891 z"
         transform="translate(-1.864,-3.729)"
         id="path12" 
      />
      <path
         style="display:inline;opacity:1;fill:#ffffff;fill-opacity:1;stroke:none;stroke-width:0.977;stroke-dasharray:none;stroke-opacity:1"
         d="m 428.843,660.467 c 0.518,-3.755 4.963,-9.473 7.802,-13.431 0.994,-1.386 2.475,-3.73 3.21,-5.27 1.206,-2.52 1.419,-4.346 0.295,-6.174 -1.368,-2.222 13.083,5.815 14.052,13.407 0.722,5.654 0.727,12.83 0.216,16.793 -0.201,1.555 -1.505,3.745 -2.51,4.96 -0.546,0.66 -1.039,1.352 -1.384,2.24 -1.651,4.252 -2.892,9.497 -1.975,13.965 0.34,1.655 1.615,1.453 2.584,4.36 0.97,2.908 4.238,2.247 7.493,4.074 3.255,1.828 6.853,11.022 7.481,15.305 0.628,4.283 6.453,11.307 8.737,11.935 2.285,0.629 11.707,0.457 12.621,1.485 0.914,1.028 -0.057,6.842 -3.255,8.499 -3.198,1.656 -5.254,2.009 -5.311,3.55 -0.057,1.543 0.958,3.044 -0.576,4.175 -1.535,1.13 -8.614,3.473 -10.472,4.523 -1.858,1.05 -3.473,2.584 -0.565,4.2 2.907,1.615 11.71,1.534 17.202,1.534 5.492,0 7.646,-5.041 13.586,2.954 5.939,7.995 10.702,20.206 10.702,24.774 0,4.569 0.131,9.533 -3.752,13.644 -3.883,4.112 1.964,15.638 -6.923,17.08 -8.92,1.445 -13.21,4.363 -13.7,5.813 -0.35,1.036 -5.129,-14.603 -7.874,-15.036 -1.407,-0.223 7.77,16.694 5.374,20.039 -1.252,1.747 -18.308,-0.59 -19.89,-0.63 -2.948,-0.072 -3.292,-10.463 -4.013,-12.2 -0.511,-1.23 0.746,6.9 0.673,10.91 -0.018,1.031 -0.743,2.554 -1.58,3.151 -0.76,0.54 -1.72,1.077 -2.589,1.41 -0.885,0.338 -2.464,0.153 -3.27,-0.352 -0.733,-0.461 -1.541,-1.107 -2.519,-1.806 -0.778,-0.555 -2.093,-1.378 -2.89,-1.91 -10.83,-7.229 -45.044,-33.475 -50.186,-41.555 -5.366,-8.432 -11.404,-18.381 -12.546,-25.234 -1.142,-6.853 -1.692,-16.456 3.8,-23.886 5.492,-7.43 8.93,-11.782 10.384,-12.75 1.454,-0.97 3.371,-6.354 5.794,-9.585 2.423,-3.23 0.946,-4.712 4.015,-5.52 1.137,-0.3 7.922,-3.73 10.985,-7.163 1.38,-1.547 -0.072,-5.798 1.458,-7.094 0.108,-0.091 0.232,-0.196 0.374,-0.323 0.319,-0.285 0.583,-0.687 0.82,-1.162 1.653,-3.313 5.168,-8.052 7.853,-10.64 0.433,-0.418 0.802,-0.792 1.077,-1.106 1.13,-1.293 3.175,-1.74 2.446,-2.262 -2.568,-1.835 -4.194,-2.873 -3.254,-9.691 z"
         transform="matrix(0.95266,0,0,1,22.282,-3.729)"
         id="path13" 
      />
      <path
         style="display:inline;opacity:1;fill:#f6b316;fill-opacity:1;stroke:none;stroke-width:0.977;stroke-dasharray:none;stroke-opacity:1"
         d="m 450.802,812.166 -17.239,-81.758 c -5.138,-23.207 -10.299,-47.406 -17.36,-70.98 0,0 1.505,-11.865 1.661,-16.324 0.156,-4.452 -5.18,-12.974 -14.25,-11.188 -5.561,1.096 -9.35,4.611 -7.25,11.875 1.03,3.56 0.245,1.677 -0.187,2.818 -0.685,1.806 -1.963,3.394 -3.4,4.77 -2.876,2.75 2.75,1.75 2.75,1.75 l 3.015,-5.43 c 0.349,-0.627 0.498,-1.702 0.387,-2.41 -0.417,-2.659 -0.707,-8.567 5.248,-9.31 5.398,-0.674 9.426,0.942 9.937,5.375 0.63,5.456 -2.76,14.422 -1.58,18.152 7.606,25.482 13.555,50.67 19.029,76.652 l 16.276,76.056 c 0.083,0.388 0.378,0.934 0.709,1.153 0.08,0.053 0.165,0.104 0.253,0.15 0.346,0.177 1.007,0.035 1.27,-0.254 0.406,-0.447 0.73,-1.097 0.73,-1.097 z"
         transform="matrix(-0.7083,0,0,0.87585,941.782,85.935)"
         id="path14" 
      />
      <path
         style="display:inline;opacity:1;fill:#e9d0a5;fill-opacity:1;stroke-width:0.977"
         d="m 464.86,550.346 c 3.43,1.001 8.005,-6.575 9.005,-6.718 1,-0.143 0.858,3.288 2.144,2.859 1.287,-0.429 2.573,-3.002 5.146,-3.002 2.573,0 19.584,3.574 23.157,1 3.574,-2.572 7.005,-11.864 7.72,-14.294 0.714,-2.43 1,-10.863 1,-10.863 l 12.436,-27.732 c 0,0 8.29,2.145 10.578,1.43 2.287,-0.715 12.15,-14.009 13.722,-14.866 1.573,-0.858 6.29,-1.859 7.434,-3.002 1.143,-1.144 2.43,-3.145 2.43,-5.432 0,-2.287 -8.863,-1.715 -10.721,0 -1.858,1.715 -12.007,13.437 -13.58,13.437 -1.572,0 -10.435,-1.144 -11.007,-1.573 -0.571,-0.428 4.003,1.001 5.003,-0.286 1.001,-1.286 0.715,-3.859 1.573,-4.43 0.858,-0.573 2.287,-1.287 2.287,-2.86 0,-1.572 -1.858,-2.144 -1.287,-3.001 0.572,-0.858 2.145,-2.288 1.43,-4.575 -0.715,-2.287 -8.434,-4.288 -11.15,-2.144 -2.716,2.144 -9.72,12.15 -12.579,16.01 -2.859,3.86 -10.292,13.865 -12.436,14.866 -2.144,1 -2.001,5.432 -2.43,7.004 -0.429,1.573 -2.43,18.011 -2.43,21.87 0,3.86 1.287,7.148 -0.143,8.291 -1.43,1.144 -5.875,1.55 -13.008,3.002 -2.89,0.589 -2.53,-0.942 -4.431,-1.143 -4.551,-0.482 -7.004,3.573 -7.29,5.717 -0.286,2.145 -2.86,7.148 -4.003,8.72 -1.143,1.572 1.43,1.715 1.43,1.715 z M 630.246,504.89 c 0,0 -1.858,10.721 -2.001,15.867 -0.143,5.146 0.429,6.718 0.429,6.718 0,0 3.001,-1 6.289,-0.714 3.288,0.286 9.577,2.43 11.436,2.144 1.858,-0.286 5.717,-3.717 7.433,-2.001 1.715,1.715 0,4.574 0.714,5.86 0.715,1.287 4.432,6.433 3.717,8.863 -0.715,2.43 -7.862,-6.29 -9.72,-6.719 -1.859,-0.428 -15.152,0.858 -17.154,2.573 -2,1.716 -7.004,2.716 -9.148,2.002 -2.144,-0.715 -2.43,0.857 -4.002,1.143 -1.573,0.286 -4.003,1.573 -6.433,-11.864 -2.43,-13.437 -2.001,-25.301 -2.001,-25.301 l -11.721,-14.152 c 0,0 -9.578,2.002 -11.579,2.002 -2.001,0 -8.29,-7.434 -9.72,-9.864 -1.43,-2.43 -1.573,-5.289 -2.859,-6.003 -1.287,-0.715 -7.29,0 -9.005,-0.572 -1.716,-0.572 -3.574,-4.288 -4.146,-5.575 -0.572,-1.286 6.004,-3.43 7.576,-3.43 1.573,0 3.574,2.573 6.29,5.146 2.716,2.572 9.72,9.005 11.006,9.29 1.287,0.287 4.003,-0.714 6.576,-1 2.573,-0.286 3.573,-0.286 3.573,-0.286 l -2.287,-3.287 c 0,0 -2.287,0.143 -2.43,-0.858 -0.143,-1 0,-3.86 0.286,-4.86 0.286,-1 -1.286,-3.86 -0.572,-5.003 0.715,-1.144 3.002,-5.29 3.002,-5.29 l 10.15,2.717 2.858,8.862 c 0,0 3.43,3.86 5.718,4.575 2.287,0.714 4.86,2 6.575,4.574 1.716,2.573 2.573,5.003 5.29,8.148 2.715,3.144 3.859,8.29 4.43,10.149 0.572,1.858 1.43,6.146 1.43,6.146 z"
         transform="translate(-1.864,-3.729)"
         id="path15" 
      />
      <path
         style="display:inline;opacity:1;fill:#161616;fill-opacity:1;stroke:none;stroke-width:0.977;stroke-dasharray:none;stroke-opacity:1"
         d="m 539.017,798.47 c 0,0 0.241,3.512 0.043,6.476 -0.128,1.912 -1.498,4.724 -2.692,6.234 -1.697,2.145 -4.019,4.941 -5.476,6.98 -0.85,1.19 1.005,1.923 3.05,1.402 2.127,-0.543 4.39,-0.924 6.3,-1.16 1.84,-0.226 5.026,-0.599 6.032,-2.069 0.505,-0.737 0.925,-1.606 1.341,-2.408 0.51,-0.982 1.615,-2.404 2.33,-3.251 1.711,-2.027 4,-4.684 4,-4.684 l 0.16,-10.005 15.81,4.267 c -0.403,2.37 1.505,4.77 0.879,7.097 -0.27,1.003 -0.617,2.5 0.212,3.12 1.25,0.933 1.287,3.273 2.733,5.038 0.37,0.45 3.748,2.85 7.808,4.712 1.286,0.59 2.507,1.07 3.484,1.338 0.89,0.245 2.327,-0.261 2.53,-1.118 0.371,-1.562 0.36,-4.287 0.25,-7.082 -0.191,-4.857 -1.124,-12.773 -3.812,-16.743 a 52.604,52.604 0 0 0 -2.355,-3.214 l -37.958,-2.746 z"
         transform="matrix(0.95266,0,0,1,22.283,-3.729)"
         id="path16" 
      />
      <path
         style="display:inline;opacity:1;fill:#b1b1b3;fill-opacity:1;stroke:none;stroke-width:1.0512;stroke-dasharray:none;stroke-opacity:1"
         d="m 497.068,751.087 -9.095,7.76 a 2.714,2.714 168.913 0 1 -2.613,0.512 l -17.526,-5.795 a 1.423,1.423 46.727 0 1 -0.929,-0.986 l -0.894,-3.375 a 1.153,1.153 111.11 0 1 0.488,-1.263 l 14.092,-9.13 12.752,-3.72 a 1.738,1.738 31.872 0 1 2.199,1.367 l 2.232,12.666 a 2.102,2.102 109.767 0 1 -0.706,1.964 z"
         id="path17"
         transform="translate(-1.864,-3.729)" 
      />
      <path
         id="path18"
         fill="#871430"
         stroke="none"
         stroke-width="1.07"
         d="m 576.677,687.046 c 2.515,-0.41 2.498,-5.786 9.044,-8.69 l 0.063,-0.027 c 6.582,-2.897 18.259,-6.1 17.956,-9.121 -3.162,-1.556 -9.938,-1.172 -11.51,-6.048 l -0.022,-0.066 c -1.071,-3.298 -6.732,-7.608 -9.95,-10.078 -1.274,-0.978 -1.786,-0.598 -2.515,0.696 -0.603,1.07 -1.542,2.417 -2.816,3.958 -0.684,0.828 -1.848,2.122 -2.564,2.922 -1.372,1.534 -2.8,3.113 -4.435,4.766 -1.406,1.421 -2.661,3.42 -4.067,4.577 -1.1,0.907 -3.6,0.887 -5.063,0.87 -0.633,-0.009 -0.592,-0.256 -2.632,-2.041 -2.133,-1.866 -5.74,-5.416 -8.373,-8.1 -1.726,-1.76 -4.46,-4.72 -5.641,-6.881 -0.333,-0.609 -0.564,-1.142 -0.683,-1.564 -0.176,-0.627 0.226,-0.7 -0.399,-0.73 -1.423,-0.07 -3.662,-0.22 -5.273,-0.021 -0.86,0.106 -2.124,0.8 -2.71,1.444 -1.603,1.76 -3.197,4.917 -4.335,7.497 -1.423,3.225 -6.85,6.036 -10.242,9.323 -1.469,1.423 4.311,1.78 6.444,5.468 2.208,3.818 6.411,2.88 7.593,4.567 2.656,3.79 11.248,9.7 13.59,7.268 2.341,-2.431 0.985,-6.312 7.228,-11.451 2.563,-2.11 0.61,2.165 2.547,3.07 1.937,0.903 7.7,-1.63 9.92,-0.586 4.438,2.087 6.327,9.387 8.845,8.978 z"
         transform="matrix(0.95266,0,0,1,22.283,-3.729)" 
      />
      <path
         style="display:inline;opacity:1;fill:#871430;fill-opacity:1;stroke:none;stroke-width:1.0512;stroke-dasharray:none;stroke-opacity:1"
         d="m 551.644,694.586 c 0,0 4.277,-0.097 6.527,0.027 2.249,0.125 6.241,-0.66 6.241,-0.66 -0.971,0.863 0.74,-8.481 -6.063,-8.296 -6.413,0.174 -5.593,8.123 -6.705,8.929 z"
         id="path19"
         transform="translate(-1.864,-3.729)" 
      />
      <ellipse
         id="ellipse19"
         cx="553.125"
         cy="539.46503"
         rx="5.5089998"
         ry="5.533"
         fill="#f6b316"
         stroke="none"
         stroke-width="1.297"
         transform="translate(-1.864,-3.729)" 
      />
      <path
         style="display:inline;opacity:1;fill:#871430;fill-opacity:1;stroke:none;stroke-width:1.0512;stroke-dasharray:none;stroke-opacity:1"
         d="m 545.752,692.367 c 0.875,0.047 0.811,3.126 1.87,6.225 1.058,3.1 3.504,5.159 8.868,5.286 7.79,0.186 11.34,-1.142 13.004,-4.176 1.663,-3.035 1.175,-6.716 1.773,-6.641 0,0 2.295,3.189 3.06,7.123 0.765,3.934 0,8.614 -0.119,11.845 -0.118,3.23 -1.002,6.66 -2.996,9.249 -1.994,2.589 -5.16,4.214 -9.718,4.586 -4.557,0.373 -10.005,-3.276 -13.384,-5.672 -2.978,-2.111 -3.008,-1.022 -4.277,-8.042 -0.654,-3.615 -1.96,-6.377 -1.5,-10.36 0.461,-3.982 3.419,-9.423 3.419,-9.423 z"
         id="path20"
         transform="translate(-1.864,-3.729)" 
      />
      <path
         style="display:inline;opacity:1;fill:#161616;fill-opacity:1;stroke:none;stroke-width:0.953594;stroke-dasharray:none;stroke-opacity:1"
         d="m 542.046,652.89 c -0.52,-0.519 9.422,18.297 17.74,18.373 3.295,0.03 7.668,-3.891 10.923,-8.357 3.256,-4.47 5.906,-9.203 6.583,-10.432 0.344,-0.625 -4.316,-8.13 -5.574,-12.536 -0.897,-3.14 0.898,-7.662 -0.201,-7.523 -2.956,0.375 -7.012,0.853 -11.19,1.08 -4.024,0.218 -10.695,0.044 -10.695,0.044 -0.27,0.395 -0.09,0.385 -0.91,3.664 -2.109,8.44 -8.332,16.054 -6.676,15.688 z"
         id="path21"
         transform="translate(-1.864,-3.729)" 
      />
      <path
         style="display:inline;opacity:1;fill:#871430;fill-opacity:1;stroke:none;stroke-width:1.0512;stroke-dasharray:none;stroke-opacity:1"
         d="m 537.634,703.82 c 20.376,5.553 31.102,1.665 40.805,-3.224 0,0 0.907,12.716 4.221,14.952 3.315,2.237 12.903,3.204 11.052,7.078 -1.645,3.445 0.962,6.493 3.48,5.29 1.257,-0.6 -0.117,5.825 0.069,8.5 0.392,5.639 6.356,24.457 6.001,28.682 -0.355,4.225 -4.267,6.68 -4.807,13.53 -0.539,6.833 0.675,31.259 -0.218,31.259 -0.372,0.302 -17.085,-1.728 -20.918,-4.16 -2.538,-1.612 -11.71,-0.205 -18.72,5.112 -3.138,2.38 -0.69,-5.46 -9.369,-7.174 -7.697,-1.52 -11.154,-5.05 -11.4,-4.48 -0.965,2.243 -0.363,4.028 -3.217,5.466 -3.061,1.542 -9.108,4.292 -9.005,3.566 -3.39,0.202 -1.17,-34.594 -0.563,-42.454 0.585,-7.565 -1.331,-15.282 -2.43,-19.197 -1.366,-4.865 -0.864,-6.7 3.851,-12.98 3.491,-4.65 6.861,-3.886 8.977,-7.3 1.31,-2.113 -3.83,-1.854 -3.61,-6.942 0.22,-5.088 5.801,-15.523 5.801,-15.523 z"
         id="path22"
         transform="translate(-1.864,-3.729)" 
      />
      <path
         style="display:inline;opacity:1;fill:#ffffff;fill-opacity:1;stroke:none;stroke-width:0.977;stroke-dasharray:none;stroke-opacity:1"
         d="m 643.233,822.572 29.994,-18.188 7.753,-23.905 34.243,-1.939 2.585,-69.455 c 0,0 -9.692,-10.983 -13.891,-15.183 -4.2,-4.2 -8.498,-17.386 -6.882,-19.001 1.615,-1.616 5.913,-10.396 3.005,-15.242 -2.907,-4.845 -8.807,-14.49 -7.764,-18.673 1.028,-4.121 -6.859,0.682 -11.296,5.429 -5.85,6.26 -11.248,12.32 -7.695,18.78 0.82,1.488 1.39,2.719 1.783,3.73 0.874,2.252 0.523,6.32 0.374,8.782 l -0.828,13.659 a 5.518,5.518 77.584 0 0 0.65,2.95 l 1.517,2.817 c 0,0 -2.804,1.056 -4.403,2.54 -1.599,1.485 -3.429,3.335 -3.429,3.335 0,0 -3.294,5.885 -6.035,6.685 -2.741,0.8 -4.536,3.871 -4.65,5.813 -0.114,1.942 -0.163,10.552 -0.163,10.552 l -3.884,10.622 -29.914,23.368 -5.089,7.537 a 55.95,55.95 119.742 0 0 -4.146,7.256 l -4.866,10.222 z"
         transform="matrix(0.95266,0,0,1,27.999,-3.729)"
         id="path23" 
      />
      <path
         style="display:inline;opacity:1;fill:#00a29b;fill-opacity:1;stroke:none;stroke-width:0.977;stroke-dasharray:none;stroke-opacity:1"
         d="m 632.065,747.06 c 2.447,-1.792 4.6,-3.054 6.343,-3.935 2.533,-1.28 7,-2.507 9.742,-3.26 a 15.983,15.983 1.911 0 1 8.03,0.268 l 0.11,0.027 c 1.528,0.375 3.401,1.787 4.157,3.167 0.974,1.778 2.244,4.17 3.071,6 0.611,1.352 0.731,3.755 0.672,5.247 l -0.023,0.567 c -0.06,1.366 -1.199,3.102 -2.434,3.682 -5.051,2.37 -17.287,7.12 -18.064,7.638 -0.97,0.647 -4.111,1.47 -3.142,2.439 0.97,0.969 12.468,9.758 13.114,12.181 0.646,2.423 -4.965,36.386 -6.742,38.325 -1.777,1.938 -4.2,3.392 -4.2,3.392 0,0 -27.781,-5.654 -32.142,-8.238 -4.362,-2.584 -3.716,-26.005 -2.1,-28.105 1.295,-1.684 7.736,-7.823 10.858,-11.114 0.913,-0.962 2.321,-2.66 2.681,-3.932 0.686,-2.424 -2.644,-1.58 -2.022,-4.788 0.252,-1.299 1.279,-3.223 1.895,-4.398 1.365,-2.598 3.397,-6.27 4.91,-8.98 1.116,-2 3.437,-4.831 5.286,-6.184 z"
         transform="matrix(0.95266,0,0,1,27.999,-3.729)"
         id="path24" 
      />
      <path
         style="display:inline;opacity:1;fill:#ffffff;fill-opacity:1;stroke:none;stroke-width:0.953594;stroke-dasharray:none;stroke-opacity:1"
         d="m 581.243,575.708 c 0,0 2.83,-11.135 1.292,-16.788 -1.539,-5.654 -3.622,-8.518 -3.622,-8.518 0,0 6.655,-6.07 8.194,-8.331 1.538,-2.262 1.698,-13.225 1.698,-13.225 -2.07,-4.177 -1.437,-3.965 -2.58,-5.446 -1.685,-2.182 -4.342,-1.432 -6.964,-0.823 -5.037,1.17 -8.377,0.938 -9.503,1.847 -1.031,0.834 -4.32,7.763 -5.761,11.494 -0.36,0.932 -2.045,3.625 -2.94,4.968 -0.783,1.172 -2.143,0.056 -2.723,0.577 -0.048,0.043 -0.825,1.198 -1.836,1.787 -1.012,0.59 -2.059,0.68 -2.912,1.103 -1.848,0.919 -1.709,1.523 -1.237,2.083 0.674,0.8 5.464,-0.146 6.05,-0.19 1.173,-0.09 4.481,-3.46 4.391,-2.623 -0.367,3.418 1.995,3.44 -0.418,5.206 -3.88,2.84 -5.16,8.707 -3.698,9.634 2.044,1.296 -4.739,5.25 -6.322,6.425 -1.919,1.424 1.478,4.091 -0.525,5.151 -0.674,0.357 -4.486,3.348 -3.368,5.677 0.805,1.677 10.852,-1.077 16.078,-0.842 6.109,0.274 11.28,0.332 16.706,0.834 z"
         id="path25"
         transform="translate(-1.864,-3.729)" 
      />
      <path
         style="display:inline;opacity:1;fill:#e6d1a4;fill-opacity:1;stroke:none;stroke-width:0.953594;stroke-dasharray:none;stroke-opacity:1"
         d="m 552.327,636.139 c 2.185,0.39 4.683,-0.003 7.19,-0.421 0.563,-0.094 1.465,-0.05 2.023,0.064 1.874,0.383 3.938,0.513 6.26,0.3 0.594,-0.055 1.191,0.348 1.288,0.936 0.277,1.683 0.685,5.106 0.396,8.329 -0.191,2.133 -1.396,5.445 -2.505,7.282 -1.017,1.683 -2.156,3.124 -3.027,3.988 -0.4,0.396 -1.168,0.91 -1.712,1.044 -1.072,0.264 -2.556,0.254 -3.643,0.027 -0.747,-0.156 -1.724,-0.97 -2.277,-1.509 -0.983,-0.955 -1.908,-1.95 -2.945,-3.993 -0.945,-1.86 -2.069,-5.086 -2.294,-7.156 -0.357,-3.292 0.047,-6.667 0.291,-8.254 0.07,-0.457 0.5,-0.718 0.955,-0.637 z"
         id="path26"
         transform="translate(-1.864,-3.729)" 
      />
      <path
         style="display:inline;opacity:1;fill:#e6d1a4;fill-opacity:1;stroke:none;stroke-width:0.977;stroke-dasharray:none;stroke-opacity:1"
         d="m 481.187,739.318 c -0.308,0.967 -0.512,2.067 -0.977,2.019 -0.941,-0.097 -2.769,-3.835 -1.983,-4.733 0.106,-0.12 2.797,-2.317 4.977,-3.174 2.01,-0.79 5.39,-5.678 5.847,-5.497 1.734,0.686 1.611,5.13 1.915,7.771 0.317,2.758 -2.054,8.741 -3.47,10.845 -0.275,0.407 -1.051,0.746 -1.333,0.405 -0.864,-1.042 -1.811,-4.234 -2.476,-6.483 -0.39,-1.318 -2.157,-2.232 -2.5,-1.153 z"
         transform="matrix(0.95266,0,0,1,22.283,-3.729)"
         id="path27" 
      />
      <path
         style="display:inline;opacity:1;fill:#e6d1a4;fill-opacity:1;stroke:none;stroke-width:0.977;stroke-dasharray:none;stroke-opacity:1"
         d="m 404.343,700.124 c -0.246,1.316 4.945,3.897 5.858,4.232 0.912,0.336 3.491,-2.549 5.21,-3.577 1.72,-1.03 2.222,-1.658 3.107,-2.254 1.399,-0.942 3.02,-3.679 2.815,-5.53 -0.02,-0.18 -0.044,-0.366 -0.07,-0.556 a 1.51,1.51 0 0 1 0.01,-0.475 c 0.245,-1.378 -1.413,-2.676 -3.266,-2.157 -0.76,0.212 -1.516,0.499 -2.205,0.84 -1.3,0.643 -3.005,2.33 -4.152,3.23 -2.785,2.182 -7.12,5.248 -7.307,6.247 z"
         transform="matrix(0.95266,0,0,1,22.283,-3.729)"
         id="path28" 
      />
      <path
         style="display:inline;opacity:1;fill:#e6d1a4;fill-opacity:1;stroke:none;stroke-width:0.977;stroke-dasharray:none;stroke-opacity:1"
         d="m 522.093,708.19 c 1.185,-0.96 4.025,-1.699 6.656,-2.3 2.631,-0.601 6.798,-3.716 9.05,-2.49 0.424,0.231 0.677,0.52 0.81,0.851 1.091,2.698 1.599,6.801 2.45,9.608 0.219,0.722 0.143,1.519 -0.49,2.432 -2.102,3.035 -14.448,2.319 -17.373,2.59 -2.924,0.27 -2.939,-3.397 -3.101,-6.715 -0.162,-3.317 0.813,-3.017 1.998,-3.977 z"
         transform="matrix(0.95266,0,0,1,23.731,-1.753)"
         id="path29" 
      />
      <path
         style="display:inline;opacity:1;fill:#e6d1a4;fill-opacity:1;stroke:none;stroke-width:0.977;stroke-dasharray:none;stroke-opacity:1"
         d="m 449.451,671.712 c 0,0 -2.835,-1.805 -5.407,-1.575 -2.47,0.22 -8.767,0.813 -9.533,2.891 -0.561,1.522 -0.898,3.15 -0.871,4.598 0.02,1.066 0.51,2.75 0.786,3.784 0.164,0.616 0.367,1.25 0.657,1.791 0.779,1.446 2.001,3.09 3.232,3.702 2.379,1.181 6.22,1.722 7.61,0.63 1.39,-1.092 3.576,-3.993 3.973,-5.582 1.051,-3.133 -0.287,-7.037 -0.447,-10.239 z"
         transform="matrix(0.95266,0,0,1,22.283,-3.729)"
         id="path30" 
      />
      <path
         style="display:inline;opacity:1;fill:#e6d1a4;fill-opacity:1;stroke:none;stroke-width:0.953594;stroke-dasharray:none;stroke-opacity:1"
         d="m 673.433,676.202 10.52,-0.245 c 0,0 1.429,2.853 2.633,4.96 1.203,2.105 1.322,4.212 -0.016,4.634 -1.337,0.42 -6.66,7.811 -8.8,7.671 -2.14,-0.14 -5.056,-3.321 -5.458,-5.427 -0.4,-2.106 0.453,-10.89 1.121,-11.593 z"
         id="path31"
         transform="translate(-1.864,-3.729)" 
      />
      <path
         style="display:inline;opacity:1;fill:#d0c9ce;fill-opacity:1;stroke:none;stroke-width:0.977;stroke-dasharray:none;stroke-opacity:1"
         d="m 632.933,721.158 c 0,0 13.469,-12.677 14.79,-12.28 1.32,0.395 8.714,12.94 10.563,16.373 1.849,3.434 6.339,9.772 5.942,10.696 -0.396,0.925 -5.017,5.15 -5.017,5.15 0,0 -2.675,-1.485 -4.26,-1.485 -1.584,0 -10.662,0.957 -10.662,0.957 z"
         id="path32"
         transform="translate(-1.864,-3.729)" 
      />
      <path
         style="display:inline;opacity:1;fill:#e6d1a4;fill-opacity:1;stroke:none;stroke-width:0.977;stroke-dasharray:none;stroke-opacity:1"
         d="m 666.597,749.29 c 1.112,-2.55 1.275,-5.1 0.702,-7.651 0,0 -5.545,-3.65 -7.3,-3.791 -1.755,-0.14 -4.493,-0.491 -4.353,2.036 0.09,1.619 0.353,3.613 1.121,5.113 0.665,1.298 2.909,2.438 4.254,3.07 1.064,0.5 1.944,0.859 2.698,0.942 1.264,0.14 2.878,0.281 2.878,0.281 z"
         transform="matrix(1.08492,0,0,1.12585,-61.66,-94.984)"
         id="path33" 
      />
      <path
         style="display:inline;opacity:1;fill:#881233;fill-opacity:1;stroke:#c6863c;stroke-width:0.977;stroke-dasharray:none;stroke-opacity:1"
         d="m 577.74,704.979 c 0.053,4.456 3.014,8.072 7.63,8.834 1.904,0.314 5.067,-0.123 6.93,-0.646 4.874,-1.368 8.34,-4.257 7.778,-8.643 -0.564,-4.395 -4.036,-9.217 -8.174,-10.798 -1.473,-0.563 -4.13,-0.536 -5.609,0.013 -4.428,1.643 -8.61,6.7 -8.556,11.24 z"
         transform="translate(-2.129,-3.11)"
         id="path34" 
      />
      <path
         style="display:inline;opacity:1;fill:#e6d1a4;fill-opacity:1;stroke:none;stroke-width:0.953594;stroke-dasharray:none;stroke-opacity:1"
         d="m 581.735,715.561 c 1.303,2.66 5.085,6.439 7.258,6.515 2.172,0.076 15.804,0.098 15.804,0.098 0,0 -0.047,-2.862 -0.336,-4.686 -0.29,-1.824 -0.361,-5.502 -1.106,-6.664 -1.304,-2.034 -7.623,0.671 -10.332,2.548 -6.513,4.514 -11.105,-2.882 -11.288,2.19 z m 100.091,-16.583 c 0,0 5.054,-0.912 5.589,-1.614 0.535,-0.702 1.082,-4.468 1.082,-4.468 0.03,0.02 -0.959,0.452 -2.875,1.685 -1.775,1.141 -3.796,4.397 -3.796,4.397 z"
         id="path35"
         transform="translate(-1.864,-3.729)" 
      />
      <path
         style="display:inline;opacity:1;fill:#cb9033;fill-opacity:1;stroke:none;stroke-width:0.977;stroke-dasharray:none;stroke-opacity:1"
         d="m 548.99,704.229 19.124,-0.188 c 0.372,-1.041 0.4,-2.083 0.188,-3.125 l -19.438,-0.062 c -0.472,1.031 -0.316,2.177 0.125,3.375 z"
         id="path36"
         transform="translate(-1.864,-3.729)" 
      />
      <path
         style="display:inline;opacity:1;fill:#b1b1b3;fill-opacity:1;stroke:none;stroke-width:0.977;stroke-dasharray:none;stroke-opacity:1"
         d="m 707.336,697.511 8.464,0.336 0.392,-7.337 10.66,-0.161 -3.23,84.638 0.323,9.207 -0.161,1.938 -39.25,0.484 -0.023,26.46 -12.024,5.494 -0.068,-59.148 9.54,-3.376 c 6.584,-2.33 17.48,-5.342 24.157,-7.368 4.474,-1.357 8.138,-2.604 8.138,-2.604 l 0.646,-37.796 c 0,0 -3.246,-5.916 -5.197,-8.033 -1.834,-1.99 -2.234,-2.818 -2.367,-2.734 z"
         transform="matrix(0.95266,0,0,1,27.998,-3.729)"
         id="path37" 
      />
      <path
         style="display:inline;opacity:1;fill:#ffffff;fill-opacity:1;stroke:none;stroke-width:0.953594;stroke-dasharray:none;stroke-opacity:1"
         d="m 681.221,779.83 29.544,-2.582 0.187,-20.566 c -0.122,0.183 -11.674,-0.279 -17.052,1.463 -6.476,2.098 -12.278,11.007 -12.278,11.007 z"
         transform="translate(-1.864,-3.729)"
         id="path38" 
      />
      <path
         style="display:inline;opacity:1;fill:#fab606;fill-opacity:1;stroke:none;stroke-width:0.904491;stroke-dasharray:none;stroke-opacity:1"
         d="m 549.331,634.308 22.439,0.01 c 0.947,-5.488 3.643,-8.525 4.488,-13.738 l -7.294,2.64 -4.655,-4.534 -4.826,4.972 -5.325,-4.995 -4.124,4.713 -6.43,-3.548 c 3.446,7.346 5.153,8.097 5.727,14.48 z"
         transform="translate(-1.864,-3.729)"
         id="path39" 
      />
      <path
         style="display:inline;opacity:1;fill:#f6b316;fill-opacity:1;stroke:none;stroke-width:0.977;stroke-dasharray:none;stroke-opacity:1"
         d="m 450.802,812.166 -18.563,-81.187 c -5.133,-23.209 -8.976,-46.417 -17.625,-69.625 0,0 3.098,-13.791 3.25,-18.25 0.156,-4.573 -5.161,-14.227 -14.25,-11.188 -6.189,2.07 -7.898,4.243 -7.25,11.875 0.277,3.26 3.094,5.938 2.813,7.813 -0.281,1.875 -1.875,5.25 -3.313,6.625 -2.875,2.75 2.75,1.75 2.75,1.75 l 4.12,-7.427 c 0.348,-0.627 0.24,-1.571 -0.114,-2.19 -1.83,-3.192 -5.738,-12.641 1.557,-14.383 5.822,-1.39 8.562,-0.5 9.937,5.375 1.375,5.875 -1.625,14.937 -2.375,18.437 -0.75,3.5 0.25,5 0.25,5 10.348,23.98 12.775,47.959 18.25,71.938 l 17.587,75.488 c 0.09,0.386 0.391,0.931 0.722,1.15 0.08,0.053 0.165,0.104 0.253,0.15 0.346,0.177 1.007,0.035 1.27,-0.254 0.406,-0.447 0.73,-1.097 0.73,-1.097 z"
         transform="translate(-1.864,-3.729)"
         id="path40" 
      />
      <path
         style="display:inline;opacity:1;fill:#e8cda1;fill-opacity:1;stroke-width:0.977"
         d="m 582.84,566.129 c 0,0 1.412,-5.017 0.091,-7.394 -1.32,-2.377 -2.656,-6.308 -2.656,-6.308 0,0 -2.912,4.21 -4.76,4.342 -1.85,0.132 -6.428,1.095 -6.068,3.581 0.422,2.915 2.653,4.702 6.657,4.925 4.188,0.233 6.728,0.894 6.735,0.854 z"
         transform="translate(-1.864,-3.729)"
         id="path41" 
      />
      <path
         style="display:inline;opacity:1;fill:#e8cda1;fill-opacity:1;stroke-width:0.977"
         d="m 538.225,560.731 c 0.623,-0.359 2.23,-1.258 3.555,-1.773 1.29,-0.502 2.635,-1.224 3.19,-1.532 a 0.48,0.48 0 0 0 0.221,-0.452 c -0.11,-0.846 -0.347,-3.186 0.417,-3.339 0.934,-0.186 3.082,3.829 3.735,3.642 0.654,-0.187 4.015,-2.334 5.696,-2.24 1.681,0.093 3.455,2.8 2.895,4.295 -0.415,1.107 -4.575,4.112 -6.929,5.594 -0.833,0.524 -2.283,0.494 -3.119,-0.023 -0.762,-0.47 -1.751,-0.994 -2.932,-1.183 -1.666,-0.266 -2.856,-0.152 -3.605,-0.1 -0.38,0.028 -0.934,-0.186 -1.25,-0.402 -0.875,-0.594 -1.866,-1.154 -2.092,-2.034 -0.042,-0.162 0.072,-0.369 0.218,-0.453 z"
         transform="translate(-0.676,-3.465)"
         id="path42" 
      />
      <path
         style="display:inline;opacity:1;fill:#c9c8c7;fill-opacity:1;stroke-width:0.977"
         d="m 521.398,707.323 c 1.62,3.67 4.294,2.183 10.192,-0.052 5.915,-2.241 9.54,-2.11 5.576,-6.518 -2.582,-2.872 -3.942,-1.82 -8.692,0.405 -4.751,2.223 -8.895,3.335 -7.076,6.165 z"
         transform="translate(-1.864,-3.729)"
         id="path43" 
      />
      <path
         style="display:inline;opacity:1;fill:#c9c8c7;fill-opacity:1;stroke-width:0.977"
         d="m 533.123,699.237 -13.342,-26.684 -24.36,-42.048 16.173,39.319 14.353,32.749 z"
         transform="translate(-1.864,-3.729)"
         id="path44" 
      />
      <path
         style="display:inline;opacity:1;fill:#cfcacd;fill-opacity:1;stroke-width:0.977"
         d="m 649.686,524.616 c 0,0 5.432,-5.574 6.004,-7.861 0.572,-2.288 3.002,-6.004 2.287,-6.719 -0.715,-0.715 -7.004,-3.573 -7.433,-4.717 -0.429,-1.143 0.858,-5.575 -1.715,-8.148 -2.573,-2.573 -6.004,-6.575 -11.15,-2.573 -5.146,4.003 0.572,-0.857 0.286,-2.716 -0.286,-1.858 2.43,-3.86 -1.144,-3.144 -3.573,0.714 -16.295,7.861 -18.582,8.862 -2.287,1 -3.86,2.573 -6.29,1.858 -2.43,-0.714 -3.86,-5.146 -6.718,-5.86 -2.86,-0.715 -7.21,-3.579 -6.933,-4.253 0.105,-0.254 -3.058,0.567 -3.002,0.465 0.275,-0.502 6.504,15.08 8.505,16.224 2.001,1.143 3.002,3.287 2.144,6.718 -0.857,3.43 1.43,4.574 2.288,3.86 0.857,-0.715 11.864,-5.718 14.58,-7.005 2.716,-1.286 6.718,-1.43 7.719,-1 1,0.429 14.58,4.145 14.294,5.289 -0.286,1.143 -1.715,1 -1.715,2.573 0,1.572 2.287,3.716 3.716,5.146 1.43,1.43 0.715,2.716 2.86,3.001 z m -124.851,-33.192 4.447,1.01 c 0,0 -7.075,10.613 -6.873,14.454 0.202,3.841 -2.73,5.762 -3.133,6.47 -0.405,0.707 1.92,2.122 1.819,2.93 -0.101,0.809 -1.01,3.538 -4.953,3.033 -3.942,-0.506 -4.346,-2.83 -5.559,-2.426 -1.213,0.404 -2.628,2.628 -3.84,2.729 -1.214,0.101 -19.408,1.415 -20.418,0.606 -1.011,-0.808 -1.011,-0.91 -2.224,-1.01 -1.213,-0.102 -4.75,3.032 -4.043,4.65 0.707,1.616 1.82,2.122 3.639,2.425 1.819,0.303 0.808,2.426 0,2.931 -0.809,0.506 -2.933,0.76 -5.46,1.266 -2.526,0.506 -3.58,2.188 -5.297,1.683 -1.719,-0.506 -4.103,-3.914 -4.036,-7.302 0.112,-5.731 7.313,-5.35 8.122,-7.675 0.808,-2.325 0.1,-7.176 0.91,-8.591 0.808,-1.416 7.479,-6.065 7.378,-7.177 -0.101,-1.112 -1.617,-2.123 -0.607,-2.628 1.011,-0.505 11.018,-0.505 11.523,-0.505 0.506,0 -1.08,2.687 0.335,3.192 1.415,0.506 11.188,1.862 13.21,0.952 2.021,-0.91 10.714,-5.762 11.825,-6.974 1.112,-1.213 3.235,-4.043 3.235,-4.043 z"
         transform="translate(-1.864,-3.729)"
         id="path45" 
      />
      <path
         style="display:inline;opacity:1;fill:#f8fdff;fill-opacity:1;stroke-width:0.977"
         d="m 550.357,469.692 22.691,0.152 4.498,-10.664 -6.368,3.993 -5.66,-5.307 -5.003,4.801 -5.003,-5.003 -4.7,5.306 -6.621,-3.487 z"
         transform="translate(-1.864,-3.729)"
         id="path46" 
      />
      <path
         style="display:inline;opacity:1;fill:#000101;fill-opacity:1;stroke-width:0.977"
         d="m 603.018,475.908 c 0,0 2.981,-0.606 4.144,-0.556 1.162,0.05 3.335,0.556 3.74,0.304 0.404,-0.253 1.516,-1.92 0.707,-2.679 l -0.809,-0.758 c 0,0 -0.252,-0.96 -0.151,-1.82 0.101,-0.859 0.253,-2.577 0.657,-3.638 0.404,-1.061 0.101,-2.224 -0.657,-3.235 -0.758,-1.01 -0.96,-4.498 -1.668,-5.306 -0.707,-0.809 -2.173,-0.86 -3.436,-0.86 -1.264,0 -2.275,-2.071 -3.74,-2.223 -1.466,-0.152 -4.726,-0.278 -5.939,0.884 -1.212,1.163 -2.234,1.392 -2.906,1.744 -1.157,0.606 -2.826,4.094 -1.339,5.458 1.476,1.354 2.704,0.404 4.22,0.657 1.516,0.253 2.679,1.365 3.184,2.375 0.505,1.011 0.202,2.376 1.112,2.022 0.91,-0.354 1.263,-1.82 2.426,-1.617 1.162,0.202 2.628,1.516 1.87,2.426 -0.758,0.91 -3.64,2.021 -3.386,2.476 0.252,0.455 0.707,0.505 1.162,1.213 0.455,0.707 0.101,2.729 0.809,3.133 z M 519.06,459.677 c 4.074,-1.43 4.05,-1.744 6.694,-1.172 2.644,0.572 2.716,1.5 3.36,1 0.642,-0.5 1.66,-0.734 2.644,0.143 0.96,0.857 1.728,2.284 1.93,3.36 0.146,0.785 -0.072,2.716 -1.573,3.073 -1.501,0.357 -7.576,3.36 -8.29,5.432 -0.716,2.072 -1.287,7.79 -2.216,8.505 -0.93,0.715 -4.003,1.5 -6.147,1.644 -2.144,0.143 -5.146,-0.358 -5.289,-1.501 -0.143,-1.144 2.073,-6.433 2.716,-7.79 0.643,-1.358 0.071,-3.789 0.286,-4.646 0.214,-0.858 -0.143,-2.93 0.572,-3.717 0.714,-0.786 3.67,-3.545 5.313,-4.331 z"
         transform="translate(-1.864,-3.729)"
         id="path47" 
      />
      <path
         style="display:inline;opacity:1;fill:#9a6f25;fill-opacity:1;stroke-width:0.977"
         d="m 576.987,705.159 c -0.314,0.244 8.177,2.071 10.5,1.897 4.218,-0.318 8.767,-1.918 12.637,-2.69 0.468,0.873 -0.78,-2.825 -0.846,-2.855 0,0.004 -4.395,1.452 -5.693,1.645 -2.092,0.31 -3.96,0.427 -3.96,0.427 0,0 -0.473,-4.807 -0.227,-5.787 0.276,-1.098 0.941,-4.386 0.952,-4.377 l 0.476,-6.948 4.554,0.334 0.108,-2.004 -4.543,-0.274 0.303,-5.303 -2.539,-0.101 -0.303,5.304 -3.746,-0.274 -0.16,1.914 3.811,0.345 -0.452,6.874 c 0.003,0 -1.51,2.824 -2.003,4.474 -0.434,1.453 -0.577,6.228 -0.577,6.228 0,-0.004 -1.562,0.215 -3.223,-0.143 -1.726,-0.373 -4.576,-1.247 -4.576,-1.247 -0.293,0.884 -0.47,1.71 -0.493,2.56 z"
         transform="translate(-1.864,-3.729)"
         id="path48" 
      />
   </g>
   <g id="Textos" transform="translate(0,0)">
      <g style="font-size:74.6667px;letter-spacing:-.31px;fill:#862845;stroke-width:.977" aria-label="·TUNA FEMENINA DE LA UNIVERSIDAD DE SEVILLA" id="g51">
         <path
            style="font-weight:700;font-size:120px;font-family:Serif;-inkscape-font-specification:'Serif Bold';display:inline"
            d="M295.445 852.525q-1.916-2.591-1.402-5.74.432-3.161 2.976-5.042 2.591-1.916 5.787-1.437 3.15.514 5.03 3.058 1.916 2.591 1.484 5.752-.513 3.15-3.105 5.065-2.544 1.881-5.658 1.414-3.196-.479-5.112-3.07z"
            transform="translate(-175.277 -258.66)"
            id="path50" 
         />
         <path
            d="m893.85 689.738-13.574-1.215.12-1.331q4.803-.763 6.966-2.024 2.2-1.257 3.646-3.663.792-1.346 1.106-4.86l.335-3.735-38.69-3.463q-3.846-.344-4.844-.024-1.001.358-1.85 1.513-.816 1.194-1.008 3.34l-.149 1.664-1.368-.123 2.35-26.26 1.369.122-.15 1.664q-.194 2.183.463 3.584.432 1.008 1.64 1.675.851.486 4.624.824l38.688 3.463.325-3.625q.453-5.067-1.487-7.552-2.707-3.486-8.18-4.834l.126-1.405 13.575 1.215zm-2.187 13.466-7.033 25.026-1.323-.372.352-1.251q.794-2.825.487-4.068-.28-1.198-1.187-1.954-.916-.72-5.063-1.886l-23.738-6.67q-6.506-1.83-8.887-1.457-2.39.408-4.418 2.269-2.027 1.86-2.992 5.292-1.105 3.933-.127 7.178 1.004 3.29 3.733 5.523 2.718 2.269 10.44 4.439l19.77 5.556q3.253.914 4.839.627 1.585-.288 2.412-1.174 1.275-1.377 2.099-4.309l1.322.372-4.712 16.767-1.322-.372.28-1.001q.574-2.038.133-3.627-.44-1.59-1.914-2.66-1.014-.786-3.98-1.62l-18.412-5.174q-8.544-2.402-12.013-4.61-3.478-2.174-5.434-7.43-1.956-5.255.164-12.799 1.769-6.292 4.413-9.251 3.605-4.04 7.722-4.966 4.118-.926 10.16.772l23.738 6.67q4.182 1.176 5.314.993 1.167-.173 2.097-1.147.929-.973 1.757-4.057zm-26.316 76.934-39.06 8.176 19.345 9.721q4.048 2.034 6.058 1.59 2.725-.626 4.543-4.409l1.227.617-7.47 14.865-1.227-.616q1.069-3.037.972-4.333-.08-1.246-1.125-2.477-1.027-1.18-4.212-2.782l-37.462-18.824.566-1.128 52.752-11.603-28.603-14.373q-3.882-1.95-6.126-.875-2.26 1.108-3.411 3.397l-.534 1.062-1.228-.617 8.02-15.96 1.228.617q-1.834 3.733-1.075 5.943.76 2.21 4.343 4.011l31.755 15.956 1.678-.362q2.51-.526 3.624-1.338 1.114-.811 2.214-2.835l1.228.617zM796.4 823.31l10.755-14.167-2.624-4.65q-1.323-2.31-2.595-3.276-1.686-1.28-3.518-.525-1.08.439-3.696 3.394l-1.094-.83 10.127-13.34 1.094.83q-1.314 2.407-.92 4.898.424 2.512 3.459 8.034l21.113 38.64-.427.562-43.87-10.505q-6.246-1.478-8.469-1.067-1.68.31-3.22 2.03l-1.094-.83 14.73-19.403 1.094.83-.606.8q-1.774 2.336-1.842 3.776-.02 1.01.867 1.684.532.404 1.229.653.31.143 2.892.797zm2.952.656 18.349 4.512-9.143-16.639zm-24.978 69.023-13.137-15.977-1.119.92q-2.581 2.123-3.58 4.242-.997 2.118-.607 4.874.362 2.78 2.59 6.189l-1.005.825-16.061-19.533 1.003-.826q5.097 5.088 8.974 4.833 3.872-.203 6.941-2.726l1.119-.92-9.788-11.904q-2.453-2.983-3.382-3.47-.957-.462-2.375-.258-1.424.257-3.059 1.602l-1.29 1.061-.873-1.061 20.337-16.722.872 1.061-1.29 1.061q-1.693 1.392-2.23 2.843-.416 1.015-.015 2.32.25.948 2.656 3.874l21.038 25.586q2.453 2.983 3.381 3.47.93.486 2.353.229 1.418-.205 3.053-1.55l1.29-1.06.873 1.06-32.814 26.982-9.175-11.157 1.176-.967q3.633 3.599 6.853 4.124 3.192.549 6.955-1.247 2.075-.985 6.722-4.806zm-43.979 31.08-10.198-17.782-.87.499q-4.155 2.383-4.527 6.064-.372 3.68 2.032 9.066l-1.224.702-13.118-22.871 1.224-.702q2.53 3.515 5.153 5.178 2.591 1.682 4.696 1.545 2.123-.105 5.248-1.897l-7.058-12.305q-2.069-3.608-2.82-4.247-.785-.62-1.918-.656-1.133-.035-3.001 1.037l-2.61 1.496q-6.12 3.51-8.166 8.452-2.08 4.959-.364 11.681l-1.192.684L685.684 895l37.753-21.654.684 1.192-1.45.832q-1.9 1.09-2.672 2.431-.579.932-.401 2.286.089.976 1.973 4.262l16.48 28.734q1.7 2.963 2.25 3.547.968.943 2.189 1.056 1.741.2 3.867-1.02l1.45-.83.684 1.191-36.562 20.97-7.409-12.917 1.224-.702q3.65 4.199 6.54 5.281 2.858 1.101 6.504.294 2.137-.455 7.098-3.3zm-78.398 2.134-2.88 35.786-19.52 6.256-.42-1.308 1.556-.499q2.122-.68 3.157-1.83.725-.78.881-2.116.117-.974-1.027-4.545L623.61 926.33q-1.18-3.678-1.863-4.472-.683-.795-2.113-1.117-1.417-.287-3.433.36l-1.556.498-.42-1.308 25.038-8.025.42 1.308-1.557.5q-2.122.68-3.157 1.83-.725.778-.87 2.15-.117.974 1.04 4.581l11.39 35.54 4.368-49.638.85-.272 32.59 37.441-10.825-33.771q-1.133-3.537-1.57-4.293-1.027-1.621-2.91-2.266-1.908-.597-5.197.457l-.42-1.308 16.41-5.26.419 1.309-.495.159q-1.603.474-2.812 1.447-1.198 1.008-1.61 2.154-.413 1.146-.27 2.933.055.411 1.086 3.63l9.725 30.34q1.167 3.643 1.84 4.403.683.794 2.101 1.081 1.43.322 3.445-.324l1.52-.488.42 1.309-19.591 6.28zm-55.096 42.7-2.049-20.395-.998.1q-4.766.479-6.609 3.687-1.842 3.208-1.847 9.106l-1.404.14-2.635-26.233 1.404-.141q.874 4.241 2.59 6.83 1.678 2.594 3.656 3.328 1.98.772 5.565.412l-1.418-14.115q-.416-4.138-.841-5.029-.463-.886-1.483-1.381t-3.163-.28l-2.993.301q-7.02.706-10.906 4.38-3.922 3.679-5.102 10.515l-1.367.137.654-16.151 43.305-4.35.137 1.367-1.663.167q-2.18.219-3.432 1.128-.908.614-1.3 1.922-.317.928.062 4.697l3.31 32.958q.342 3.4.605 4.157.5 1.256 1.568 1.858 1.508.894 3.946.649l1.663-.167.137 1.367-41.937 4.213-1.489-14.817 1.404-.141q1.618 5.324 3.814 7.492 2.158 2.172 5.817 2.924 2.136.457 7.826-.115zm-57.368 4.632-22.245-33.132-1.745 21.58q-.365 4.515.801 6.212 1.604 2.29 5.792 2.554l-.11 1.37-16.583-1.34.11-1.37q3.217-.15 4.381-.727 1.124-.542 1.873-1.972.71-1.395.997-4.949l3.379-41.79 1.258.103 30.563 44.534 2.58-31.907q.35-4.33-1.488-6.007-1.877-1.679-4.43-1.886l-1.185-.095.11-1.37 17.805 1.44-.111 1.37q-4.149-.299-5.912 1.235t-2.087 5.532l-2.864 35.422.966 1.42q1.43 2.127 2.6 2.855 1.171.728 3.46.988l-.11 1.37zm-58.891-58.838.307-1.34 25.664 5.88-.307 1.338-1.629-.373q-2.135-.489-3.613-.027-1.057.29-1.846 1.406-.597.777-1.443 4.47l-7.396 32.288q-.862 3.764-.68 4.796.183 1.033 1.256 2.002 1.03.998 3.092 1.47l1.63.374-.308 1.34-25.664-5.88.307-1.339 1.629.373q2.136.49 3.613.028 1.057-.291 1.882-1.398.597-.777 1.443-4.47l7.396-32.288q.862-3.764.68-4.797-.219-1.04-1.248-2.038-1.073-.97-3.136-1.442zm-37.3 39.32-11.873-38.1-7.827 20.185q-1.638 4.224-1.003 6.183.883 2.652 4.822 4.1l-.497 1.281-15.511-6.014.497-1.282q3.125.774 4.405.554 1.233-.2 2.358-1.356 1.078-1.136 2.367-4.46l15.157-39.09 1.177.457 16.593 51.4 11.572-29.845q1.57-4.05.286-6.182-1.319-2.144-3.708-3.07l-1.108-.43.497-1.281 16.654 6.457-.497 1.281q-3.891-1.469-6.019-.502-2.127.968-3.577 4.707l-12.848 33.135.52 1.636q.764 2.447 1.679 3.478.914 1.032 3.034 1.933l-.497 1.282zm-49.576-64.422 15.15 9.32 4.372-3.066q2.17-1.543 3.007-2.903 1.109-1.803.18-3.552-.544-1.031-3.74-3.347l.72-1.17 14.264 8.775-.72 1.17q-2.523-1.072-4.963-.437-2.46.667-7.658 4.227l-36.393 24.787-.6-.37 6.169-44.687q.86-6.36.235-8.532-.473-1.642-2.336-3.006l.72-1.17 20.749 12.764-.72 1.17-.854-.526q-2.5-1.537-3.94-1.463-1.006.078-1.59 1.026-.35.57-.53 1.287-.112.324-.51 2.956zm-.364 3.002-2.698 18.701 15.666-10.724zm-60.408-2.79-18.132-18.627.984-.958.907.931q2.046 2.102 3.276 2.46 1.177.357 2.285-.048 1.083-.432 4.17-3.437l17.668-17.2q4.843-4.714 5.713-6.96.845-2.274.25-4.96-.594-2.687-3.08-5.242-2.85-2.927-6.148-3.706-3.351-.78-6.65.462-3.325 1.216-9.073 6.81l-14.715 14.326q-2.421 2.357-2.967 3.873-.545 1.515-.193 2.676.553 1.793 2.677 3.975l-.984.958-12.149-12.48.985-.958.725.745q1.477 1.517 3.073 1.932 1.596.416 3.26-.324 1.189-.483 3.397-2.633l13.704-13.34q6.36-6.19 10.009-8.085 3.624-1.921 9.152-.98 5.528.94 10.994 6.555 4.559 4.683 5.795 8.455 1.69 5.144.428 9.171-1.262 4.027-5.759 8.405l-17.668 17.2q-3.113 3.03-3.522 4.102-.435 1.097-.058 2.389.377 1.292 2.63 3.554zm-53.383-61.26 12.455-37.914-18.092 11.89q-3.786 2.488-4.407 4.451-.821 2.673 1.545 6.139l-1.148.754-9.136-13.903 1.148-.755q2.095 2.445 3.266 3.009 1.119.553 2.707.265 1.536-.299 4.516-2.257l35.037-23.025.693 1.055-16.336 51.484 26.752-17.58q3.63-2.386 3.822-4.867.171-2.512-1.236-4.654l-.653-.993 1.149-.754 9.81 14.927-1.15.755q-2.314-3.456-4.608-3.904-2.294-.447-5.646 1.755L290.4 833.941l-.526 1.635q-.799 2.435-.653 3.806.145 1.371 1.348 3.336l-1.149.754zm10.272-82.659 1.246-.578 11.084 23.882-1.246.578-.704-1.516q-.922-1.987-2.192-2.871-.878-.657-2.243-.597-.98.005-4.416 1.599l-30.046 13.945q-3.503 1.626-4.207 2.403-.704.777-.812 2.219-.158 1.424.733 3.344l.703 1.516-1.246.578-11.084-23.882 1.247-.578.703 1.516q.922 1.987 2.193 2.871.878.657 2.257.631.98-.005 4.417-1.6l30.046-13.944q3.503-1.626 4.207-2.403.688-.81.846-2.235.108-1.442-.783-3.362zm-63.912-39.272 1.318-.389q1.206 2.51 4.202 3.87 2.223.97 9.685 1.98l41.809 5.73.347 1.176-33.499 27.902q-6.06 5.043-6.967 6.434-.916 1.355-.405 4.263l-1.318.39-6.839-23.15 1.318-.389.231.784q.926 3.134 2.047 4.042.776.661 1.808.356.642-.19 1.448-.737.77-.538 4.097-3.302l20.998-17.394-24.223-3.221q-4.387-.563-5.82-.565-1.434-.002-2.36.27-1.068.316-1.719 1.128-.65.812-.752 2.042-.153 1.71.594 4.24l-1.318.388zm-1.041-30.648 20.39-2.1-.102-.997q-.49-4.765-3.703-6.6-3.213-1.834-9.11-1.824l-.145-1.404 26.228-2.7.144 1.404q-4.24.884-6.824 2.606-2.59 1.685-3.319 3.664-.767 1.983-.398 5.566l14.111-1.452q4.138-.426 5.027-.854.885-.464 1.378-1.485.492-1.022.271-3.164l-.308-2.992q-.722-7.019-4.407-10.895-3.688-3.914-10.527-5.076l-.14-1.367 16.152.614 4.457 43.294-1.367.14-.17-1.662q-.225-2.18-1.138-3.43-.616-.906-1.925-1.294-.928-.315-4.696.073l-32.95 3.392q-3.4.35-4.156.614-1.255.502-1.854 1.572-.89 1.51-.639 3.948l.171 1.663-1.366.14-4.316-41.927 14.812-1.524.145 1.403q-5.32 1.63-7.483 3.832-2.166 2.164-2.91 5.824-.451 2.137.135 7.826zm22.732-56.566 14.064 1.16q4.071.335 5.184-.057 1.079-.433 1.812-1.64.733-1.206 1.016-4.648l1.37.113-2.117 25.685-1.37-.113q.287-3.48-.242-4.752-.562-1.314-1.559-1.88-.993-.604-5.064-.94l-32.569-2.684q-4.07-.336-5.15.097-1.113.393-1.846 1.6-.732 1.206-1.016 4.647l-1.37-.112 1.922-23.316q.751-9.105 2.357-13.22 1.606-4.116 5.23-6.5 3.588-2.387 8.14-2.011 5.552.457 8.85 4.753 2.084 2.743 2.853 7.427l17.982-10.665q3.489-2.097 4.385-3.03 1.273-1.422 1.548-3.411l1.37.113-1.303 15.803-24.205 14.287zm-24.611-2.028 21.984 1.812.174-2.11q.424-5.144-.291-7.774-.752-2.633-3.076-4.278-2.357-1.685-6.317-2.011-5.737-.473-8.698 2.003-2.958 2.439-3.45 8.397zm9.868-77.856 16.356 3.792-.38 1.475q-6.382-.533-11.142 2.613-4.787 3.1-6.01 7.847-.945 3.668.477 6.335 1.396 2.622 3.949 3.28 1.618.417 3.071-.014 1.96-.608 4.206-2.483 1.623-1.385 6.218-6.72 6.413-7.474 10.922-9.496 4.5-1.985 9.318-.743 6.113 1.575 9.304 7.497 3.165 5.877 1.275 13.213-.593 2.302-1.589 4.23-.995 1.93-3.087 4.69-1.164 1.54-1.451 2.655-.24.935.21 2.163.45 1.228 1.758 2.255l-.343 1.331-18.412-4.744.343-1.33q8.175.419 13.433-3.02 5.23-3.484 6.574-8.699 1.038-4.027-.544-6.966-1.573-2.974-4.486-3.725-1.726-.444-3.585.074-1.85.482-3.77 1.981-1.957 1.49-5.517 5.635-4.986 5.81-8.038 8.13-3.052 2.32-6.3 3.17-3.24.814-6.657-.066-5.825-1.5-8.822-6.836-2.997-5.336-1.32-11.845.611-2.373 1.76-4.455.868-1.579 2.675-3.682 1.781-2.15 2.031-3.12.241-.935-.195-1.623-.437-.687-2.51-1.72zm60.8-19.54 1.277.506-9.701 24.477-1.277-.507.615-1.553q.808-2.037.575-3.567-.127-1.09-1.11-2.038-.678-.708-4.2-2.104l-30.793-12.204q-3.59-1.423-4.639-1.399-1.048.024-2.17.938-1.141.866-1.921 2.833l-.616 1.554-1.277-.506 9.7-24.477 1.278.506-.616 1.554q-.807 2.037-.575 3.567.128 1.089 1.097 2.072.678.708 4.199 2.104l30.794 12.204q3.59 1.423 4.639 1.399 1.062-.059 2.203-.924 1.122-.914 1.901-2.882zm-19.359-67.495 11.913 6.619-.649 1.169q-4.7-1.252-7.188-.978-2.522.256-4.82 1.868-1.269.909-2.982 3.993l-1.822 3.278 33.955 18.866q3.376 1.875 4.418 1.987 1.06.08 2.305-.631 1.23-.761 2.276-2.644l.812-1.46 1.2.667-12.804 23.047-1.202-.667.812-1.46q1.064-1.916 1.032-3.463.014-1.097-.819-2.197-.58-.79-3.892-2.63l-33.954-18.865-1.768 3.182q-2.47 4.447-1.706 7.506 1.06 4.285 5.515 7.736l-.686 1.234-11.913-6.619zm50.934-6.705L314.098 459.6l2.477 4.73q1.25 2.35 2.49 3.355 1.645 1.333 3.5.637 1.093-.406 3.801-3.277l1.068.864-10.542 13.015-1.068-.865q1.39-2.364 1.074-4.865-.344-2.525-3.204-8.14l-19.886-39.285.444-.549 43.518 11.882q6.195 1.673 8.43 1.333 1.69-.257 3.283-1.929l1.068.865-15.334 18.93-1.067-.865.63-.78q1.847-2.28 1.96-3.717.053-1.009-.813-1.71-.52-.42-1.208-.692-.306-.152-2.865-.887zm-2.93-.748-18.197-5.087 8.614 16.918zm29.3-38.782 9.089 10.794q2.63 3.125 3.693 3.638 1.068.46 2.44.13 1.373-.33 4.015-2.554l.885 1.05-19.715 16.6-.885-1.051q2.67-2.249 3.201-3.52.536-1.325.235-2.432-.272-1.13-2.903-4.255l-21.048-24.998q-2.63-3.125-3.698-3.585-1.063-.513-2.435-.183-1.373.33-4.015 2.555l-.885-1.051 17.897-15.069q6.988-5.883 11.04-7.644 4.051-1.761 8.297-.87 4.222.863 7.164 4.357 3.587 4.261 2.863 9.628-.477 3.412-3.258 7.258l20.24 5.242q3.946.998 5.24.977 1.905-.1 3.511-1.307l.885 1.051-12.13 10.213-27.195-7.103zm-15.906-18.891 14.208 16.874 1.619-1.364q3.948-3.324 5.31-5.685 1.339-2.389.868-5.196-.466-2.86-3.025-5.9-3.708-4.403-7.551-4.759-3.815-.38-8.389 3.47zm80.558-.858.723 1.168-22.387 13.857-.723-1.168 1.42-.88q1.864-1.153 2.59-2.52.547-.95.325-2.297-.122-.973-2.115-4.194L378.715 362.3q-2.033-3.284-2.888-3.89-.856-.606-2.3-.541-1.434.013-3.234 1.127l-1.42.88-.724-1.169 22.388-13.857.723 1.168-1.421.88q-1.863 1.153-2.59 2.52-.547.95-.356 2.317.122.973 2.115 4.193l17.434 28.166q2.033 3.284 2.888 3.89.887.586 2.32.573 1.445-.065 3.245-1.179zm24.79-26.185-16.269 7.195.047 5.34q.04 2.661.686 4.121.857 1.936 2.824 2.162 1.158.138 4.878-1.182l.556 1.256-15.317 6.774-.556-1.256q2.314-1.47 3.174-3.84.845-2.404.86-8.705l.22-44.031.646-.286 33.31 30.421q4.75 4.315 6.894 5.031 1.62.542 3.801-.22l.556 1.257-22.28 9.854-.555-1.257.917-.405q2.683-1.187 3.44-2.415.506-.874.056-1.893-.27-.61-.76-1.166-.203-.276-2.145-2.097zm-2.267-2.002-13.875-12.826-.05 18.984zm44.252 1.594-.233-1.354 1.647-.284q2.159-.372 3.18-1.226 1.051-.898 1.398-2.163.197-.826-.466-4.668l-5.628-32.643q-.656-3.806-1.223-4.688-.566-.882-1.93-1.363-1.334-.524-3.42-.164l-1.647.284-.233-1.354 22.213-3.83q8.893-1.533 14.725-.052 7.135 1.822 11.573 7.237 4.475 5.409 5.781 12.984.902 5.233-.018 9.951-.926 4.682-3.099 8.034-2.18 3.315-5.39 5.677-3.18 2.32-8.066 4.142-2.156.824-6.95 1.65zm10.85-50.067 6.676 38.717q.53 3.074.942 3.72.413.644 1.172.89 1.082.379 2.949.057 6.111-1.054 8.612-5.78 3.42-6.394 1.376-18.25-1.647-9.552-5.632-14.743-3.149-4.055-7.16-5.021-2.83-.68-8.935.41zm63.337-6.139-.207 20.498 1.003.01q4.79.049 6.974-2.938 2.184-2.986 2.838-8.847l1.41.015-.266 26.364-1.41-.014q-.403-4.312-1.823-7.074-1.384-2.763-3.268-3.71-1.884-.985-5.486-1.021l-.143 14.185q-.042 4.159.283 5.09.361.933 1.32 1.537.96.603 3.114.625l3.008.03q7.055.072 11.321-3.153 4.304-3.225 6.228-9.89l1.374.014-2.427 15.982-43.52-.44.014-1.374 1.67.017q2.192.022 3.536-.744.971-.51 1.504-1.768.417-.887.455-4.674l.335-33.123q.034-3.417-.143-4.198-.359-1.304-1.354-2.02-1.4-1.053-3.851-1.078l-1.671-.017.014-1.374 42.146.426-.15 14.89-1.412-.014q-1.021-5.47-2.965-7.866-1.907-2.396-5.46-3.546-2.074-.69-7.792-.747zm94.558 8.644-3.49 16.423-1.48-.352q.414-6.39-2.82-11.092-3.187-4.729-7.956-5.864-3.685-.877-6.325.595-2.596 1.443-3.206 4.008-.387 1.626.07 3.07.644 1.948 2.56 4.16 1.415 1.596 6.834 6.092 7.592 6.273 9.696 10.744 2.069 4.462.917 9.303-1.462 6.142-7.324 9.442-5.818 3.272-13.188 1.518-2.312-.55-4.26-1.51-1.947-.96-4.744-3-1.562-1.135-2.682-1.401-.94-.224-2.159.25-1.22.473-2.222 1.8l-1.337-.319 4.402-18.497 1.337.319q-.268 8.181 3.268 13.374 3.58 5.166 8.818 6.413 4.047.962 6.955-.674 2.945-1.627 3.642-4.554.412-1.734-.14-3.583-.516-1.84-2.05-3.733-1.527-1.928-5.737-5.411-5.9-4.878-8.277-7.887-2.376-3.008-3.286-6.24-.874-3.224-.057-6.656 1.392-5.852 6.672-8.948 5.279-3.095 11.818-1.539 2.384.568 4.486 1.679 1.595.837 3.732 2.606 2.181 1.74 3.157 1.972.939.224 1.618-.225.68-.45 1.674-2.541zm31.691 15.34-7.851 18.935.926.384q4.425 1.835 7.567-.119 3.142-1.954 5.938-7.146l1.303.54-10.098 24.356-1.304-.54q1.238-4.15.953-7.244-.25-3.079-1.645-4.661-1.38-1.618-4.707-2.997l-5.433 13.103q-1.593 3.842-1.64 4.828-.013 1 .652 1.919.664.918 2.654 1.743l2.778 1.152q6.518 2.703 11.68 1.305 5.197-1.383 9.472-6.846l1.27.526-8.223 13.917-40.204-16.67.526-1.269 1.544.64q2.024.84 3.557.631 1.091-.11 2.055-1.077.719-.667 2.17-4.166l12.687-30.599q1.308-3.156 1.435-3.947.155-1.343-.5-2.379-.906-1.5-3.17-2.44l-1.544-.64.527-1.269 38.934 16.144-5.704 13.755-1.303-.54q1.096-5.455.188-8.405-.873-2.935-3.74-5.33-1.665-1.413-6.947-3.603zm82.304 42.251-.747 1.153q-2.55-1.12-5.71-.202-2.318.71-8.64 4.801l-35.47 22.864-1.028-.666 7.268-42.987q1.319-7.774 1.101-9.42-.186-1.624-2.467-3.5l.747-1.153 20.26 13.122-.747 1.153-.686-.444q-2.743-1.776-4.184-1.737-1.02.003-1.605.907-.364.561-.62 1.502-.234.91-.96 5.173l-4.619 26.873 20.486-13.322q3.696-2.428 4.786-3.36 1.09-.93 1.615-1.741.605-.935.57-1.975-.033-1.04-.757-2.04-.998-1.398-3.21-2.83l.746-1.154zm-5.621 60.619-.907 1.032-19.789-17.367.907-1.032 1.256 1.102q1.646 1.445 3.166 1.74 1.068.247 2.292-.36.895-.4 3.393-3.246l21.85-24.897q2.547-2.903 2.877-3.898.33-.995-.154-2.358-.43-1.367-2.022-2.763l-1.256-1.102.907-1.033 19.789 17.367-.907 1.033-1.256-1.102q-1.647-1.446-3.166-1.741-1.068-.246-2.32.335-.895.4-3.393 3.248l-21.85 24.896q-2.547 2.903-2.877 3.898-.302 1.02.129 2.386.484 1.363 2.075 2.76zm45.5 26.307-14.622 10.11-29.202-33.856 1.04-.897 1.092 1.265q1.43 1.66 2.894 2.162 1.025.392 2.32-.04.942-.272 3.81-2.746l25.084-21.635q2.924-2.522 3.388-3.462.465-.94.174-2.357-.238-1.413-1.62-3.016l-1.091-1.265 1.04-.898 17.536 20.331-1.04.898-1.432-1.66q-1.43-1.659-2.894-2.162-1.025-.391-2.344.012-.942.272-3.81 2.746l-24.296 20.956q-2.925 2.523-3.45 3.563-.496 1.017-.04 2.34.353.922 2.681 3.622l2.741 3.177q2.62 3.037 5.434 4.14 2.815 1.103 6.382.577 3.592-.499 9.23-3.058zm27.991 45.722-16.167 7.392-22.819-38.45 1.182-.7.853 1.436q1.118 1.884 2.47 2.636.94.565 2.292.368.975-.104 4.232-2.037l28.486-16.905q3.321-1.971 3.943-2.815.622-.844.584-2.29.014-1.433-1.067-3.253l-.852-1.437 1.181-.701 13.703 23.089-1.182.7-1.118-1.883q-1.118-1.885-2.471-2.636-.94-.565-2.31-.4-.975.104-4.232 2.037l-27.592 16.374q-3.322 1.971-4.02 2.904-.667.914-.45 2.297.186.97 2.005 4.035l2.142 3.608q2.046 3.45 4.624 5.029 2.578 1.579 6.183 1.685 3.623.139 9.623-1.393zm10.643 35.893-6.125-16.7-5.33-.3q-2.66-.132-4.159.417-1.987.73-2.34 2.678-.213 1.146.864 4.944l-1.29.473-5.767-15.724 1.29-.473q1.317 2.404 3.626 3.417 2.344.999 8.63 1.423l43.925 3.075.243.662-32.517 31.267q-4.613 4.46-5.467 6.554-.647 1.582-.028 3.807l-1.29.473-8.388-22.871 1.29-.473.346.941q1.01 2.755 2.186 3.589.839.562 1.885.179.627-.23 1.213-.682.288-.185 2.231-2.005zm2.145-2.132 13.7-13.014-18.942-1.28z"
            style="font-weight:700;font-size:76.0529px;font-family:Serif;-inkscape-font-specification:'Serif, Bold';stroke-width:.755906;stroke-linecap:round;stroke-linejoin:round;paint-order:fill markers stroke"
            transform="rotate(147.611 527.833 495.066) scale(1.0519)"
            aria-label="TUNA FEMENINA UNIVERSITARIA DE SEVILLA"
            id="path51" 
         />
      </g>
      <g
         style="font-weight:700;font-size:50.1585px;font-family:Serif;-inkscape-font-specification:'Serif Bold';letter-spacing:-.31px;fill:#fdba14;stroke-width:.977"
         aria-label="· SIGILLUM UNIVERSITATIS LITTERARIAE HISPALENSIS"
         id="g53"
      >
         <path
            d="M371.473 774.3q-1.495-2.224-.95-4.82.477-2.61 2.66-4.077 2.225-1.494 4.862-.977 2.596.545 4.063 2.729 1.495 2.224 1.018 4.833-.545 2.597-2.77 4.091-2.183 1.467-4.752.963-2.637-.517-4.131-2.741z"
            style="stroke-width:1.94348"
            transform="matrix(1.0726 0 0 1.0726 -215.946 -305.09)"
            id="path52" 
         />
         <path
            style="font-weight:400;-inkscape-font-specification:Serif"
            d= "m337.905 734.88 10.428-4.814.38.823q-2.817 1.786-4.113 3.652-1.307 1.844-1.47 4.24-.162 2.394.783 4.44 1.067 2.312 3.189 3.167 2.099.866 3.9.034 1.378-.636 2.071-2.116 1.031-2.149 1.419-8.613.318-5.272.832-7.37.482-2.112 1.748-3.694 1.255-1.605 3.057-2.436 3.424-1.581 7.146-.062 3.69 1.506 5.62 5.687.606 1.312.94 2.56.206.74.523 3.238.284 2.486.551 3.064.257.556.744.735.478.158 1.595-.17l.38.824-10.34 4.773-.38-.823q2.98-2.077 4.15-3.804 1.15-1.718 1.294-4.212.133-2.516-.976-4.918-1.283-2.78-3.49-3.703-2.217-.945-4.218-.021-1.112.513-1.958 1.659-.857 1.124-1.24 2.865-.267 1.175-.638 6.04-.393 4.875-.923 7.116-.54 2.219-1.706 3.783-1.167 1.563-3.035 2.425-3.246 1.5-6.73.087-3.508-1.403-5.283-5.25-1.11-2.401-1.173-5.636-.019-1.502-.255-2.013-.267-.578-.765-.78-.53-.214-1.678.046zm23.274-32.866.857-.294 4.624 13.457-.857.294-.382-1.111q-.668-1.946-2.106-2.436-.932-.301-3.758.67l-20.29 6.971q-2.386.82-3.047 1.384-.5.43-.67 1.292-.205 1.21.177 2.322l.382 1.111-.857.295-4.624-13.458.857-.294.39 1.135q.66 1.922 2.098 2.413.94.324 3.766-.647l20.29-6.972q2.386-.82 3.047-1.383.5-.43.661-1.315.214-1.187-.168-2.299zm-39.687-24.03 10.071-3.03.18.838q-3.561 2.09-5.071 4.516-2.182 3.497-1.21 8.047 1.327 6.203 6.928 8.387 4.723 1.82 10.447.596 4.646-.994 8.094-3.61 3.448-2.615 4.624-5.897 1.148-3.301.492-6.367-.384-1.796-1.198-3.375-.813-1.58-2.032-2.947l-9.389 2.008q-2.443.523-3.103 1.065-.69.523-.904 1.395-.243.853.177 2.817l-.91.195-2.69-12.574.91-.194.129.598q.4 1.868 1.793 2.297.989.29 3.6-.27l9.939-2.125q2.074 2.437 3.342 4.97 1.268 2.535 1.97 5.816 2.013 9.412-2.978 15.589-3.743 4.632-9.659 5.897-4.287.917-8.655-.303-5.193-1.444-8.619-5.17-2.847-3.122-3.886-7.984-.38-1.772-.4-3.27-.024-1.523.39-4.392.215-1.448.118-1.903-.097-.455-.571-.68-.503-.243-1.74-.054zm30.4-27.567.902-.082 1.287 14.171-.902.082-.106-1.17q-.187-2.05-1.466-2.868-.834-.514-3.81-.244l-21.366 1.94q-2.512.229-3.288.619-.588.3-.958 1.095-.488 1.127-.382 2.297l.107 1.171-.903.082-1.287-14.17.902-.083.109 1.195q.184 2.025 1.463 2.843.836.539 3.812.269l21.366-1.941q2.513-.228 3.289-.619.587-.299.955-1.12.49-1.101.384-2.272zm-8.273-29.904.185-.805 8.964 2.991-.431 25.713-.906-.015.02-1.25q.036-2.105-1.32-3.034-.775-.528-3.616-.575l-21.427-.36q-3.11-.052-3.905.62-1.094.938-1.125 2.823l-.021 1.249-.906-.015.252-15.036.906.015q-.069 2.645.427 3.73.497 1.062 1.274 1.467t3.74.455l20.864.35q2.032.034 2.798-.345.52-.285.774-.893.256-.609.31-3.816l.04-2.425q.064-3.82-.473-5.372-.537-1.552-1.936-2.85-1.424-1.297-4.488-2.622zm4.602-31.307.295-.772 8.46 4.212-4.011 25.401-.895-.14.195-1.235q.328-2.08-.885-3.19-.694-.63-3.5-1.072l-21.168-3.343q-3.073-.485-3.954.07-1.213.776-1.507 2.639l-.195 1.234-.895-.142 2.345-14.854.895.142q-.436 2.609-.096 3.753.343 1.12 1.056 1.63.713.51 3.64.971l20.612 3.255q2.008.317 2.819.048.554-.21.891-.777.338-.566.838-3.735l.378-2.395q.596-3.774.28-5.386-.316-1.612-1.52-3.092-1.229-1.483-4.078-3.222zm-14.357-32.896-.863-.277 3.59-11.194.863.277-.381 1.19q-.599 1.865.642 3.369.566.722 3.201 1.567l12.827 4.114q4.757 1.526 7.086 3.327 2.313 1.77 3.312 5.152.983 3.35-.543 8.108-1.66 5.177-4.317 7.283-2.656 2.106-6.047 2.253-2.314.08-8.028-1.752l-12.36-3.964q-2.916-.935-4.087-.411-1.164.501-1.74 2.297l-.381 1.19-.863-.277 4.383-13.667.863.277-.389 1.213q-.628 1.959.339 3.195.652.852 3.31 1.705l13.784 4.42q1.842.592 4.325 1.028 2.491.413 4.105-.047 1.614-.46 3.007-1.839 1.402-1.402 2.18-3.827.995-3.102.428-5.985-.568-2.882-2.382-4.442-1.83-1.59-6.868-3.206l-12.804-4.106q-2.961-.95-3.917-.536-1.318.58-1.894 2.376zm43.883-19.85-30.679-2.098 19.486 10.614q2.689 1.465 3.672 1.247 1.337-.304 2.274-2.024l.562-1.033.796.434-5.53 10.152-.795-.434.562-1.032q1.008-1.85.31-3.233-.43-.849-2.882-2.184l-19.055-10.38q-1.936-1.054-3.03-1.092-.789-.04-1.642.556-.864.561-1.836 2.346l-.796-.433 4.498-8.26 28.584 1.849-17.15-22.84 4.5-8.259.795.434-.55 1.01q-1.02 1.872-.323 3.255.43.848 2.882 2.184l19.056 10.38q2.689 1.464 3.683 1.225 1.337-.304 2.274-2.025l.55-1.01.797.433-6.748 12.388-.796-.433.562-1.032q1.02-1.872.311-3.234-.43-.848-2.882-2.183l-19.486-10.614 18.413 24.615zm11.614-70.196-.664-.617 8.004-8.61.664.617-.85.915q-1.335 1.435-.85 3.323.206.894 2.233 2.778l9.867 9.171q3.66 3.402 5.002 6.021 1.343 2.585.811 6.07-.532 3.452-3.934 7.111-3.701 3.982-7 4.761-3.3.78-6.431-.527-2.13-.91-6.526-4.995l-9.507-8.838q-2.242-2.084-3.526-2.107-1.266-.04-2.55 1.341l-.85.915-.664-.617 9.771-10.512.664.617-.867.933q-1.4 1.507-1.05 3.036.228 1.049 2.273 2.95l10.602 9.854q1.417 1.318 3.48 2.767 2.08 1.432 3.737 1.7 1.656.27 3.503-.387 1.865-.675 3.599-2.54 2.217-2.386 2.928-5.237.71-2.85-.27-5.033-.983-2.217-4.858-5.818l-9.848-9.155q-2.278-2.117-3.319-2.149-1.44-.034-2.724 1.348zm11.313-12.97 7.19-5.434 31.216 7.63-11.548-15.28q-1.845-2.442-2.85-2.635-1.343-.274-2.907.907l-.918.694-.546-.723 9.222-6.97.547.724-.938.708q-1.68 1.27-1.616 2.818.042.95 1.726 3.177l16.878 22.334-.704.532-33.593-8.136 12.33 16.315q1.846 2.442 2.831 2.65 1.363.259 2.907-.908l.938-.708.546.723-9.223 6.97-.546-.724.918-.694q1.7-1.284 1.636-2.832-.043-.95-1.726-3.178l-13.925-18.425q-2.172-.477-3.102-.45-.911.014-2.345.514-.7.252-1.852 1.123zm62.559-3.53.45.786-12.36 7.052-.449-.787 1.021-.582q1.787-1.02 2-2.523.123-.972-1.358-3.568l-10.633-18.634q-1.25-2.19-1.928-2.735-.516-.41-1.394-.417-1.227.024-2.248.606l-1.021.583-.45-.787 12.36-7.053.449.787-1.043.595q-1.765 1.008-1.979 2.511-.143.984 1.338 3.58l10.633 18.634q1.25 2.19 1.927 2.735.516.41 1.416.405 1.206-.012 2.227-.594zm21.352-44.504.344.839q-1.511.963-2.043 2.054-.747 1.603-.738 4.272l-.005 30.546-.839.343-22.366-21.777q-1.72-1.677-2.268-1.982-.855-.47-1.85-.512-.984-.074-2.435.388l-.344-.838 12.556-5.144.343.839q-2.047 1.076-2.468 1.858-.42.78-.087 1.597.465 1.133 2.491 3.108l15.2 14.814-.036-20.762q-.011-3.065-.43-4.085-.269-.657-1.167-.977-.908-.343-2.574.049-.123.024-.413.09l-.344-.839zm16.26-2.155 2.911 12.8 7.117-1.618q2.77-.63 3.512-1.678.992-1.381.505-4.184l.883-.2 2.564 11.271-.883.201q-.872-2.288-1.359-2.88-.62-.739-1.708-.994-1.087-.255-3.117.207l-7.117 1.619 2.428 10.675q.49 2.15.789 2.584.294.41.837.588.537.154 1.875-.15l5.492-1.25q2.747-.625 3.902-1.29 1.155-.664 2.046-2.047 1.143-1.817 2.017-5.156l.955-.217-.947 8.755-24.956 5.677-.201-.884 1.146-.26q1.146-.261 2.048-1.044.678-.556.766-1.38.113-.83-.425-3.193l-4.785-21.04q-.701-3.08-1.485-3.656-1.077-.76-3.083-.303l-1.146.26-.201-.883 24.956-5.677 1.971 7.011-.931.212q-1.083-2.44-1.921-3.255-.814-.82-2.123-1.05-1.036-.14-3.448.408zm60.187 23.869-8.847.575-12.226-14.765q-1.243.13-2.025.181l-.685.045h-.76l.626 9.63q.204 3.128.937 3.84.999 1.016 2.856.895l1.296-.084.059.904-14.2.924-.059-.904 1.247-.081q2.102-.137 2.917-1.565.464-.79.28-3.626l-1.394-21.409q-.204-3.128-.937-3.841-1.023-1.014-2.905-.891l-1.247.08-.058-.903 12.073-.786q5.279-.344 7.823.276 2.566.594 4.437 2.559 1.893 1.938 2.079 4.797.199 3.055-1.659 5.434-1.833 2.378-5.952 3.578l7.462 9.062q2.559 3.122 4.315 4.088 1.757.965 4.489 1.082zm-24.644-15.503q.465-.03.808-.028l.563-.037q4.74-.309 7.002-2.517 2.286-2.21 2.08-5.388-.202-3.104-2.283-4.907-2.058-1.83-5.26-1.622-1.417.093-3.807.715zm49.802-16.112-.994 11.444-.903-.079q-.153-3.332-1.13-5.383-.953-2.05-2.952-3.379-1.999-1.329-4.243-1.524-2.538-.22-4.333 1.197-1.792 1.393-1.964 3.37-.132 1.513.81 2.848 1.354 1.961 6.774 5.505 4.42 2.891 5.987 4.38 1.593 1.465 2.34 3.35.77 1.886.598 3.862-.326 3.757-3.492 6.236-3.138 2.456-7.726 2.058-1.44-.125-2.689-.455-.746-.188-3.071-1.152-2.299-.986-2.933-1.041-.61-.053-1.008.281-.374.336-.644 1.468l-.903-.078.986-11.346.902.079q.325 3.617 1.244 5.491.921 1.85 3.016 3.212 2.118 1.364 4.753 1.593 3.05.265 4.947-1.193 1.92-1.456 2.112-3.651.106-1.22-.47-2.524-.55-1.302-1.872-2.498-.888-.815-4.928-3.55-4.038-2.76-5.72-4.332-1.66-1.57-2.438-3.358-.779-1.789-.6-3.839.308-3.562 3.264-5.887 2.957-2.349 7.178-1.982 2.635.229 5.475 1.778 1.314.729 1.875.778.634.055 1.057-.277.448-.355.792-1.48zm16.972 36.655-.177.889-13.957-2.77.177-.89 1.153.23q2.018.4 3.164-.596.73-.654 1.311-3.585l4.178-21.044q.49-2.474.336-3.33-.121-.647-.78-1.228-.942-.786-2.096-1.015l-1.153-.229.177-.889 13.957 2.771-.176.889-1.178-.234q-1.993-.396-3.14.6-.753.65-1.335 3.58l-4.177 21.044q-.492 2.475-.337 3.33.121.648.804 1.233.919.781 2.072 1.01zm38.384-22.289-1.962 7.546-.889-.276q.354-2.045.171-3.025-.303-1.582-1.323-2.591-.989-1.026-2.953-1.637l-4.467-1.39-7.535 24.229q-.91 2.923-.503 3.845.583 1.258 2.43 1.833l1.1.342-.27.865-13.447-4.182.27-.865 1.122.349q2.011.625 3.231-.33.747-.587 1.577-3.253l7.535-24.229-3.812-1.185q-2.222-.691-3.26-.655-1.353.066-2.611 1.06-1.259.994-2.091 3.094l-.89-.276 2.688-7.32zm13.148 30.506-11.63-5.483-4.274 3.78q-1.578 1.395-1.985 2.259-.324.687.068 1.521.424.823 2.522 2.001l-.386.82-9.46-4.46.387-.819q2.04.556 2.844.285 1.631-.53 4.54-3.14l22.222-19.741.775.365-1.324 29.918q-.157 3.608.434 4.997.623 1.377 2.41 2.355l-.387.82-11.852-5.588.387-.82q1.836.758 2.696.54.883-.206 1.227-.937.46-.975.566-3.497zm.152-1.932.628-14.542-10.951 9.675zm44.427 3.616-4.013 6.685-.774-.516q.916-1.862 1.018-2.853.156-1.604-.538-2.86-.659-1.263-2.37-2.404l-3.894-2.594-14.069 21.115q-1.697 2.548-1.568 3.547.204 1.372 1.814 2.444l.958.639-.502.754-11.72-7.809.503-.754.978.652q1.753 1.168 3.193.597.883-.354 2.43-2.677l14.07-21.115-3.322-2.214q-1.936-1.29-2.942-1.548-1.318-.319-2.805.28-1.488.597-2.88 2.378l-.774-.517 4.645-6.264zm-5.111 37.955-.584.694-10.884-9.167.584-.693.9.757q1.573 1.326 3.058 1.007.954-.22 2.88-2.506l13.82-16.41q1.625-1.93 1.902-2.753.207-.626-.09-1.452-.446-1.144-1.345-1.901l-.899-.757.584-.694 10.884 9.167-.584.693-.918-.773q-1.555-1.31-3.04-.991-.973.205-2.898 2.49l-13.82 16.41q-1.625 1.93-1.902 2.753-.207.626.108 1.468.427 1.128 1.326 1.885zm40.763-5.914-8.276 7.965-.629-.653q2.077-2.61 2.69-4.798.63-2.17 0-4.486-.632-2.316-2.195-3.94-1.766-1.835-4.05-1.948-2.267-.13-3.696 1.246-1.094 1.053-1.264 2.678-.27 2.368 1.482 8.602 1.427 5.086 1.628 7.237.236 2.153-.441 4.062-.66 1.928-2.09 3.303-2.717 2.616-6.732 2.4-3.98-.214-7.173-3.531-1.002-1.042-1.726-2.112-.438-.632-1.556-2.888-1.083-2.255-1.524-2.714-.425-.44-.944-.45-.503.007-1.451.682l-.628-.653 8.205-7.898.628.653q-2.134 2.939-2.675 4.955-.523 2 .158 4.403.699 2.42 2.533 4.326 2.123 2.206 4.51 2.356 2.405.167 3.993-1.362.882-.85 1.307-2.21.441-1.342.232-3.113-.133-1.197-1.376-5.915-1.226-4.735-1.46-7.026-.216-2.273.374-4.133.59-1.859 2.072-3.286 2.576-2.48 6.331-2.286 3.773.176 6.711 3.228 1.834 1.906 2.954 4.941.51 1.413.9 1.82.442.458.979.485.571.029 1.57-.593zm9.76 55.603.294.772-9.114 2.496-13.937-21.612.762-.49.677 1.049q1.141 1.77 2.785 1.788.937.008 3.325-1.532l18.01-11.613q2.614-1.686 2.901-2.687.388-1.387-.634-2.972l-.677-1.05.762-.49 8.15 12.637-.762.492q-1.413-2.237-2.43-2.864-1.002-.606-1.873-.51-.871.095-3.362 1.7l-17.537 11.31q-1.708 1.1-2.134 1.842-.273.525-.147 1.173.126.647 1.865 3.343l1.314 2.038q2.07 3.211 3.38 4.202 1.31.992 3.194 1.292 1.904.288 5.188-.314zm.569 19.938-.81.405-6.37-12.724.811-.406.526 1.051q.921 1.84 2.41 2.135.965.175 3.637-1.162l19.185-9.603q2.256-1.13 2.836-1.776.438-.493.493-1.369.043-1.227-.483-2.278l-.527-1.051.81-.406 6.37 12.725-.81.405-.538-1.073q-.91-1.818-2.4-2.113-.974-.196-3.646 1.141l-19.186 9.603q-2.256 1.129-2.836 1.775-.438.493-.481 1.391-.054 1.205.472 2.257zm41.211 16.712-7.171 3.06-.325-.872q1.835-.97 2.499-1.714 1.067-1.206 1.242-2.63.208-1.41-.51-3.339l-1.63-4.384-23.782 8.845q-2.87 1.068-3.35 1.952-.64 1.231.035 3.044l.401 1.08-.85.315-4.909-13.199.85-.316.41 1.102q.734 1.974 2.235 2.357.922.231 3.539-.742l23.781-8.845-1.391-3.742q-.811-2.18-1.474-2.98-.88-1.03-2.436-1.42-1.555-.387-3.727.237l-.324-.872 7.436-2.348zm8.032 34.055-7.528 2.032-.2-.909q1.951-.705 2.713-1.349 1.224-1.047 1.596-2.432.401-1.368-.04-3.377l-1.005-4.569-24.781 5.451q-2.99.658-3.59 1.467-.804 1.13-.389 3.02l.248 1.124-.885.194-3.026-13.753.885-.195.253 1.148q.452 2.057 1.886 2.645.88.357 3.608-.242l24.78-5.451-.857-3.9q-.5-2.271-1.045-3.155-.728-1.143-2.215-1.744-1.486-.601-3.724-.285l-.2-.909 7.691-1.29zm-.013 16.485-13.089 1.013.564 7.276q.219 2.833 1.147 3.72 1.222 1.182 4.066 1.11l.07.903-11.526.892-.07-.904q2.391-.529 3.048-.924.82-.505 1.232-1.544.41-1.04.25-3.115l-.563-7.276-10.915.844q-2.198.17-2.671.404-.449.23-.704.742-.23.509-.125 1.876l.435 5.617q.217 2.808.706 4.047.489 1.24 1.727 2.323 1.631 1.397 4.806 2.748l.076.977-8.523-2.215-1.975-25.517.903-.07.091 1.172q.09 1.172.734 2.179.45.75 1.253.959.804.233 3.221.045l21.513-1.664q3.15-.244 3.834-.936.908-.954.75-3.006l-.091-1.172.903-.07 1.975 25.518-7.224.927-.074-.952q2.574-.715 3.501-1.426.93-.686 1.348-1.946.29-1.005.1-3.472zM762.51 672.83l.609-8.845 16.262-10.149q.037-1.25.091-2.031l.047-.685q.05-.364.101-.754l-9.627-.662q-3.127-.215-3.932.417-1.139.854-1.266 2.711l-.09 1.295-.904-.062.977-14.196.904.062-.085 1.246q-.145 2.102 1.161 3.1.722.565 3.556.76l21.404 1.473q3.128.215 3.932-.417 1.141-.879 1.27-2.76l.086-1.246.904.062-.83 12.07q-.363 5.278-1.317 7.716-.93 2.465-3.127 4.057-2.173 1.618-5.032 1.42-3.054-.21-5.164-2.367-2.112-2.134-2.753-6.376l-9.975 6.187q-3.436 2.12-4.627 3.732-1.19 1.612-1.67 4.304zm18.65-22.358q-.033.465-.08.805l-.04.562q-.325 4.74 1.562 7.276 1.886 2.56 5.063 2.779 3.103.213 5.168-1.609 2.087-1.796 2.307-4.996.098-1.418-.2-3.868zm-12.834 46.573 2.91-12.525-4.595-3.38q-1.696-1.25-2.627-1.466-.74-.172-1.473.387-.714.588-1.425 2.887l-.882-.205 2.367-10.186.882.205q-.113 2.11.32 2.84.863 1.483 4.026 3.777l23.98 17.565-.195.835-29.525 5.007q-3.56.606-4.794 1.476-1.215.9-1.794 2.852l-.883-.205 2.966-12.763.883.205q-.354 1.955.04 2.75.387.82 1.175 1.002 1.05.244 3.537-.183zm1.92-.258 14.348-2.45-11.764-8.667zm-28.65 41.775 3.366-8.202 18.632-4.506q.429-1.174.726-1.899l.26-.634q.163-.331.334-.684l-8.927-3.663q-2.9-1.19-3.863-.844-1.35.452-2.057 2.174l-.493 1.2-.838-.343 5.402-13.165.838.344-.474 1.156q-.8 1.949.125 3.308.507.764 3.136 1.842l19.848 8.144q2.9 1.19 3.863.844 1.36-.475 2.076-2.22l.474-1.155.838.344-4.592 11.193q-2.009 4.894-3.682 6.908-1.66 2.046-4.246 2.864-2.573.85-5.224-.237-2.832-1.162-4.154-3.876-1.332-2.69-.603-6.918l-11.417 2.728q-3.929.93-5.567 2.084-1.639 1.154-2.943 3.557zm24.746-15.34q-.177.43-.33.739l-.214.521q-1.803 4.396-.81 7.397.982 3.024 3.928 4.233 2.877 1.18 5.411.102 2.547-1.046 3.765-4.014.54-1.314 1.03-3.734zm-31.604 28.448-.792-.44 6.897-12.446.792.44-.57 1.027q-.997 1.8-.398 3.196.4.894 3.014 2.342l18.766 10.398q2.207 1.223 3.068 1.336.654.083 1.408-.368 1.036-.657 1.606-1.686l.57-1.028.792.44-6.896 12.446-.793-.44.582-1.049q.985-1.778.386-3.174-.388-.915-3.002-2.363l-18.766-10.4q-2.207-1.222-3.068-1.335-.654-.082-1.42.39-1.024.636-1.594 1.664zm-5.27 25.82 7.58-10.385-2.905-4.91q-1.072-1.814-1.843-2.377-.614-.447-1.507-.22-.888.261-2.442 2.099l-.732-.534 6.166-8.447.732.534q-.93 1.898-.817 2.739.213 1.702 2.226 5.051l15.19 25.55-.506.693-29.13-6.95q-3.513-.837-4.989-.519-1.47.352-2.767 1.922l-.732-.534 7.725-10.584.732.535q-1.09 1.66-1.04 2.546.037.906.69 1.382.87.635 3.327 1.216zm1.867.515 14.162 3.363-7.433-12.581zm-4.028 33.014-9.24-9.326-5.185 5.137q-2.018 2-2.093 3.281-.112 1.697 1.784 3.818l-.644.638-8.136-8.211.643-.638q1.95 1.48 2.677 1.727.916.298 1.974-.06 1.058-.36 2.537-1.825l5.185-5.137-7.706-7.776q-1.551-1.566-2.035-1.776-.467-.193-1.022-.057-.537.153-1.512 1.119l-4.001 3.965q-2 1.982-2.63 3.157-.629 1.174-.653 2.82-.01 2.147 1.014 5.442l-.696.69-3.826-7.932 18.18-18.014.639.644-.835.827q-.835.827-1.187 1.969-.281.83.08 1.576.342.764 2.049 2.486l15.186 15.327q2.224 2.245 3.193 2.319 1.316.075 2.778-1.373l.835-.828.638.644-18.181 18.014-5.38-4.909.678-.672q2.21 1.5 3.352 1.747 1.124.265 2.356-.231.954-.429 2.712-2.17zm-44.946 20.173-13.08 8.183 5.039 8.056q1.35 2.16 2.05 2.676.532.39 1.43.347 1.204-.06 2.201-.683l.997-.624.48.768-12.043 7.534-.48-.768.997-.624q.996-.623 1.59-1.66.457-.747.277-1.588-.187-.808-1.486-2.884l-11.365-18.168q-1.338-2.138-2.036-2.655-.533-.389-1.41-.36-1.226.073-2.222.697l-.997.623-.48-.768 12.042-7.534.48.768-.996.624q-1.723 1.078-1.876 2.589-.103.99 1.481 3.522l5.365 8.576 13.08-8.183-5.364-8.576q-1.337-2.138-2.036-2.655-.532-.389-1.43-.347-1.205.06-2.202.684l-1.017.636-.48-.768 12.063-7.547.48.769-.996.623q-1.744 1.091-1.897 2.602-.083.976 1.502 3.51l11.365 18.167q1.351 2.16 2.05 2.676.532.39 1.41.36 1.225-.073 2.222-.696l.996-.624.48.769-12.063 7.546-.48-.768 1.017-.637q.997-.623 1.59-1.66.437-.734.257-1.575-.166-.82-1.465-2.897zm-45.162 5.238-.378-.824 12.936-5.928.378.824-1.07.49q-1.87.857-2.216 2.335-.207.958 1.037 3.674l8.938 19.504q1.05 2.294 1.677 2.896.478.454 1.351.539 1.225.085 2.294-.404l1.068-.49.378.824-12.936 5.927-.378-.823 1.091-.5q1.848-.847 2.195-2.326.23-.967-1.015-3.684l-8.938-19.504q-1.05-2.293-1.677-2.895-.477-.455-1.373-.53-1.203-.095-2.271.395zm-12.246 39.349-3.616-10.903.86-.285q1.46 3 3.169 4.497 1.686 1.505 4.047 1.935 2.362.43 4.5-.28 2.418-.802 3.506-2.814 1.095-1.989.47-3.872-.478-1.441-1.87-2.295-2.02-1.266-8.4-2.375-5.204-.906-7.232-1.653-2.043-.715-3.474-2.15-1.454-1.428-2.078-3.31-1.187-3.58.739-7.11 1.91-3.497 6.28-4.947 1.372-.454 2.65-.646.76-.123 3.277-.158 2.501-.004 3.106-.204.58-.193.814-.657.21-.457.01-1.603l.86-.286 3.585 10.81-.86.285q-1.73-3.193-3.316-4.551-1.578-1.335-4.04-1.757-2.485-.414-4.996.419-2.906.963-4.07 3.053-1.189 2.097-.495 4.19.386 1.161 1.43 2.131 1.02.977 2.708 1.553 1.138.397 5.93 1.31 4.801.937 6.968 1.715 2.145.785 3.568 2.12 1.423 1.334 2.07 3.286 1.126 3.394-.668 6.699-1.786 3.327-5.808 4.661-2.51.833-5.732.534-1.495-.15-2.03.027-.604.2-.86.673-.272.503-.142 1.673zm-22.209-13.667-1.864-9.493q-.605-3.076-1.424-3.688-1.121-.878-2.971-.515l-1.25.246-.175-.89 13.963-2.743.175.89-1.226.24q-2.067.406-2.692 1.927-.334.84.214 3.627l4.136 21.052q.604 3.076 1.4 3.694 1.144.873 2.995.51l1.225-.241.175.889-11.944 2.346q-4.374.86-7.077.442-2.698-.393-4.848-2.192-2.15-1.8-2.727-4.731-.783-3.99 1.37-7.008 2.128-3.014 6.934-3.958 1.178-.232 2.58-.333 1.403-.1 3.031-.07zm.27 1.37q-1.321.01-2.33.083-1.01.074-1.706.21-2.5.492-3.924 2.768-1.444 2.306-.84 5.382.416 2.115 1.635 3.747 1.224 1.657 2.985 2.234 1.765.602 3.784.205 1.226-.24 3.058-1.075zm-38.122-1.503 12.844-.6 2.006-5.341q.742-1.972.697-2.926-.035-.758-.772-1.312-.76-.529-3.166-.588l-.043-.905 10.447-.489.042.906q-2.062.464-2.646 1.08-1.193 1.232-2.542 4.9l-10.392 27.848-.856.04-12.839-27.056q-1.55-3.262-2.722-4.212-1.196-.925-3.232-.952l-.042-.906 13.088-.612.043.905q-1.978.19-2.636.786-.683.596-.646 1.403.05 1.076 1.138 3.355zm.77 1.779 6.254 13.143 5.147-13.677zm-43.945-6.77-.782-.265 3.887-8.614 25.535 3.04-.107.9-1.24-.148q-2.092-.249-3.154 1.006-.603.717-.939 3.539l-2.533 21.28q-.368 3.088.22 3.947.821 1.183 2.694 1.406l1.24.148-.107.9-14.932-1.778.107-.9q2.623.337 3.754-.046 1.107-.386 1.589-1.118.481-.732.832-3.675l2.467-20.72q.24-2.019-.06-2.82-.23-.545-.81-.86-.578-.316-3.764-.695l-2.408-.287q-3.794-.451-5.393-.074-1.598.377-3.03 1.637-1.436 1.284-3.066 4.198zm-18.986 18.187 3.488-12.656-7.037-1.939q-2.739-.755-3.887-.182-1.527.748-2.424 3.448l-.873-.241 3.07-11.145.874.241q-.313 2.429-.165 3.18.198.944 1.035 1.683.838.74 2.845 1.293l7.037 1.939 2.908-10.555q.586-2.125.527-2.65-.065-.5-.46-.913-.4-.39-1.722-.754l-5.431-1.497q-2.715-.748-4.047-.709-1.332.04-2.771.837-1.868 1.06-4.216 3.589l-.944-.26 4.975-7.267 24.673 6.8-.24.873-1.134-.312q-1.133-.312-2.298-.05-.86.17-1.328.854-.491.678-1.135 3.015l-5.733 20.802q-.839 3.046-.42 3.923.59 1.18 2.573 1.726l1.133.312-.24.874-24.674-6.8 1.578-7.11.92.254q-.2 2.663.154 3.776.33 1.108 1.374 1.929.847.614 3.232 1.271zm-24.237-4.896-8.186-3.77-8.022-31.118-8.012 17.396q-1.28 2.781-.975 3.758.392 1.313 2.172 2.133l1.046.481-.38.823-10.5-4.836.38-.823 1.067.492q1.914.881 3.247.093.817-.486 1.985-3.022l11.71-25.427.801.369 8.7 33.451 8.555-18.575q1.28-2.78.998-3.747-.415-1.323-2.173-2.133l-1.068-.492.38-.823 10.5 4.836-.38.823-1.045-.481q-1.936-.892-3.27-.104-.816.487-1.984 3.023l-9.662 20.977q.606 2.14 1.07 2.947.442.796 1.56 1.824.553.497 1.866 1.101zm-57.178-30.17 6.35-9.57.755.5q-1.46 3-1.584 5.268-.144 2.256.974 4.38 1.12 2.123 2.997 3.369 2.122 1.408 4.376 1.022 2.241-.365 3.338-2.018.84-1.265.652-2.888-.25-2.37-3.312-8.076-2.497-4.654-3.16-6.711-.698-2.05-.45-4.061.226-2.025 1.322-3.678 2.086-3.143 6.051-3.804 3.932-.654 7.768 1.892 1.204.798 2.144 1.686.565.522 2.145 2.482 1.546 1.966 2.077 2.318.51.339 1.02.235.488-.116 1.268-.98l.755.5-6.296 9.49-.756-.5q1.447-3.332 1.537-5.418.077-2.065-1.11-4.263-1.207-2.212-3.411-3.674-2.551-1.693-4.914-1.32-2.384.358-3.602 2.195-.677 1.02-.796 2.44-.14 1.406.448 3.09.39 1.14 2.627 5.476 2.225 4.356 2.95 6.541.704 2.172.532 4.115-.173 1.944-1.31 3.658-1.977 2.98-5.684 3.606-3.721.647-7.252-1.696-2.204-1.462-3.956-4.182-.804-1.268-1.273-1.58-.531-.352-1.06-.262-.564.096-1.405.92zm2.606-40.253.578-.698 10.962 9.074-.578.698-.906-.75q-1.585-1.312-3.067-.98-.952.228-2.858 2.53l-13.68 16.527q-1.608 1.944-1.878 2.77-.202.627.102 1.45.455 1.14 1.36 1.89l.906.75-.577.698-10.962-9.073.578-.698.924.765q1.566 1.296 3.048.965.972-.213 2.877-2.515l13.68-16.527q1.609-1.944 1.879-2.77.201-.627-.121-1.466-.437-1.125-1.342-1.874zm-40.71 6.26 8.207-8.035.634.647q-2.054 2.628-2.649 4.822-.612 2.175.039 4.486.65 2.31 2.227 3.92 1.782 1.82 4.067 1.914 2.267.11 3.685-1.277 1.085-1.062 1.241-2.689.25-2.37-1.554-8.59-1.47-5.072-1.69-7.222-.254-2.15.407-4.066.645-1.932 2.062-3.32 2.695-2.639 6.711-2.457 3.982.18 7.203 3.47 1.01 1.033 1.744 2.098.444.628 1.58 2.874 1.102 2.246 1.547 2.701.429.438.948.443.503-.012 1.445-.694l.634.647-8.138 7.967-.634-.648q2.11-2.956 2.633-4.977.507-2.004-.195-4.401-.72-2.415-2.57-4.305-2.141-2.188-4.53-2.317-2.405-.147-3.98 1.395-.876.856-1.289 2.22-.43 1.347-.206 3.116.143 1.196 1.427 5.903 1.266 4.724 1.518 7.013.236 2.272-.338 4.136-.574 1.864-2.044 3.303-2.556 2.502-6.312 2.34-3.774-.144-6.738-3.171-1.85-1.89-2.996-4.916-.522-1.409-.916-1.811-.445-.455-.982-.478-.571-.024-1.565.607z"
            transform="matrix(1.0726 0 0 1.0726 -215.946 -305.09)"
            id="path53" 
         />
      </g>
  </g>
</svg>
